<svg width="288" height="47" viewBox="0 0 288 47" fill="none" xmlns="http://www.w3.org/2000/svg">
<g clip-path="url(#clip0_955_6289)">
<path d="M82.9372 26.3328H85.5717C84.5471 31.248 80.5344 34.5534 75.1679 34.5534C68.8744 34.5534 63.8005 29.6747 63.8005 23.2226C63.8005 16.7706 68.8744 11.9163 75.1679 11.9163C80.5344 11.9163 84.5471 15.1972 85.5717 20.1003H82.9372C82.0346 16.5388 79.144 14.2824 75.1679 14.2824C70.2282 14.2824 66.374 18.1 66.374 23.2104C66.374 28.3208 70.2282 32.175 75.1679 32.175C79.144 32.175 82.0346 29.8576 82.9372 26.3328Z" fill="#040531"/>
<path d="M111.77 23.2104C111.77 18.2707 107.916 14.2824 102.976 14.2824C98.0365 14.2824 94.1702 18.2707 94.1702 23.2104C94.1702 28.1501 98.0243 32.1384 102.964 32.1384C107.904 32.1384 111.77 28.1623 111.77 23.2104ZM114.331 23.2104C114.331 29.5039 109.258 34.5168 102.964 34.5168C96.6705 34.5168 91.5967 29.5039 91.5967 23.2104C91.5967 16.9169 96.6705 11.9041 102.964 11.9041C109.258 11.9041 114.331 16.9169 114.331 23.2104Z" fill="#040531"/>
<path d="M140.347 12.2944V34.1265H138.225L124.26 16.917V34.1265H121.723V12.2944H123.772L137.81 29.7357V12.2944H140.347Z" fill="#040531"/>
<path d="M152.019 14.6362V22.6616H163.131V25.0156H152.019V34.1265H149.482V12.2944H164.472V14.6362H152.019Z" fill="#040531"/>
<path d="M187.817 31.7848V34.1265H173.242V12.2944H175.779V31.7848H187.817Z" fill="#040531"/>
<path d="M211.991 24.7839C211.991 30.6017 208.271 34.5168 202.648 34.5168C197.025 34.5168 193.305 30.6017 193.305 24.7839V12.2944H195.842V24.7839C195.842 29.0527 198.538 32.1385 202.648 32.1385C206.722 32.1385 209.454 29.0527 209.454 24.7839V12.2944H211.991V24.7839Z" fill="#040531"/>
<path d="M223.431 14.6362V22.125H234.896V24.4668H223.431V31.7848H236.177V34.1265H220.894V12.2944H236.177V14.6362H223.431Z" fill="#040531"/>
<path d="M262.387 12.2944V34.1265H260.265L246.3 16.917V34.1265H243.763V12.2944H245.824L259.85 29.7357V12.2944H262.387Z" fill="#040531"/>
<path d="M269.12 12.2944V14.6362H277.158V34.1265H279.694V14.6362H287.744V12.2944H269.12Z" fill="#040531"/>
<path d="M30.6743 22.5394C28.5887 22.4784 26.4909 22.454 24.4052 22.4418C24.4052 20.3562 24.393 18.2583 24.332 16.1727L24.2345 12.6112C24.1735 11.4282 24.1369 10.2329 24.0515 9.0498H23.0514C22.966 10.2329 22.9294 11.4282 22.8684 12.6112L22.7709 16.1727C22.7465 17.1484 22.7343 18.1364 22.7221 19.1121C22.3318 18.2095 21.9537 17.307 21.5512 16.4166L20.0998 13.1723C19.5875 12.099 19.0996 11.0135 18.5752 9.95236L17.6482 10.3427C18.0263 11.4648 18.441 12.5747 18.8435 13.6968L20.112 17.0265C20.4657 17.9412 20.8316 18.856 21.1975 19.7585C20.5023 19.0755 19.7949 18.3925 19.0874 17.7095L16.5017 15.2579C15.6236 14.4651 14.7576 13.648 13.8551 12.8674L13.1476 13.5748C13.9282 14.4773 14.7454 15.3311 15.5382 16.2215L17.9897 18.8072C18.6606 19.5146 19.3436 20.222 20.0388 20.9172C19.124 20.5513 18.2215 20.1854 17.3067 19.8317L13.977 18.5632C12.8549 18.1607 11.745 17.7461 10.6229 17.368L10.2326 18.2949C11.2937 18.8316 12.3793 19.3072 13.4526 19.8195L16.6969 21.2709C17.5873 21.6734 18.4898 22.0515 19.3924 22.4418C18.4166 22.454 17.4287 22.4662 16.453 22.4906L12.8915 22.5882C11.7084 22.6491 10.5132 22.6857 9.33008 22.7711V23.7712C10.5132 23.8566 11.7084 23.8932 12.8915 23.9542L16.453 24.0518C18.5386 24.1127 20.6364 24.1127 22.7221 24.1249C22.7343 26.2106 22.7465 28.3084 22.8196 30.3941L22.9294 33.9555C22.9904 35.1386 23.027 36.3339 23.1124 37.5169H24.0271C24.1125 36.3339 24.1491 35.1386 24.2101 33.9555L24.3198 30.3941C24.3564 29.3939 24.3686 28.3816 24.3808 27.3815C24.7833 28.3084 25.1736 29.2232 25.5883 30.1379L27.0519 33.3822C27.5642 34.4556 28.052 35.5411 28.5887 36.6022L29.4303 36.2485C29.0522 35.1142 28.6375 34.0043 28.2472 32.8822L26.9909 29.5525C26.6372 28.6133 26.2713 27.6742 25.8932 26.7472C26.6128 27.4424 27.3324 28.1499 28.0642 28.8329L30.6621 31.2722C31.5403 32.065 32.4063 32.8822 33.3088 33.6506L33.9552 33.0041C33.1747 32.1016 32.3697 31.2356 31.5769 30.3575L29.1375 27.7596C28.4545 27.0278 27.7471 26.3082 27.0519 25.5885C27.991 25.9544 28.918 26.3325 29.8571 26.6863L33.1868 27.9425C34.3089 28.3328 35.4188 28.7597 36.5531 29.1256L36.9068 28.284C35.8457 27.7474 34.7602 27.2595 33.6869 26.7472L30.4426 25.2836C29.5278 24.8689 28.6009 24.4664 27.6861 24.0762C28.6863 24.064 29.6986 24.0518 30.6987 24.0152L34.2602 23.9054C35.4432 23.8444 36.6385 23.8078 37.8216 23.7225V22.8077C36.6385 22.7223 35.4432 22.6857 34.2602 22.6247L30.6743 22.5394Z" fill="#040531"/>
<path d="M23.5513 0C10.7082 0 0.255615 10.4526 0.255615 23.2957C0.255615 36.1389 10.7082 46.5914 23.5513 46.5914C36.3945 46.5914 46.8471 36.1389 46.8471 23.2957C46.8593 10.4526 36.4067 0 23.5513 0ZM23.5513 44.4204C11.9035 44.4204 2.42663 34.9436 2.42663 23.2957C2.42663 11.6479 11.9035 2.17101 23.5513 2.17101C35.1992 2.17101 44.676 11.6479 44.676 23.2957C44.676 34.9436 35.1992 44.4204 23.5513 44.4204Z" fill="#040531"/>
</g>
<defs>
<clipPath id="clip0_955_6289">
<rect width="287.489" height="46.5914" fill="white" transform="translate(0.255615)"/>
</clipPath>
</defs>
</svg>
