<?xml version="1.0" encoding="UTF-8" standalone="no"?>
<!-- Created with Inkscape (http://www.inkscape.org/) -->

<svg
   xmlns:dc="http://purl.org/dc/elements/1.1/"
   xmlns:cc="http://creativecommons.org/ns#"
   xmlns:rdf="http://www.w3.org/1999/02/22-rdf-syntax-ns#"
   xmlns:svg="http://www.w3.org/2000/svg"
   xmlns="http://www.w3.org/2000/svg"
   xmlns:sodipodi="http://sodipodi.sourceforge.net/DTD/sodipodi-0.dtd"
   xmlns:inkscape="http://www.inkscape.org/namespaces/inkscape"
   width="1021.9012"
   height="282.82169"
   id="svg3902"
   version="1.1"
   inkscape:version="0.92.2 (5c3e80d, 2017-08-06)"
   sodipodi:docname="logo_kaleidos.svg">
  <defs
     id="defs3904" />
  <sodipodi:namedview
     id="base"
     pagecolor="#ffffff"
     bordercolor="#666666"
     borderopacity="1.0"
     inkscape:pageopacity="0.0"
     inkscape:pageshadow="2"
     inkscape:zoom="0.49497475"
     inkscape:cx="476.45277"
     inkscape:cy="-52.218687"
     inkscape:document-units="px"
     inkscape:current-layer="layer2"
     showgrid="false"
     inkscape:window-width="1920"
     inkscape:window-height="1025"
     inkscape:window-x="0"
     inkscape:window-y="27"
     inkscape:window-maximized="1"
     showguides="true"
     inkscape:guide-bbox="true"
     fit-margin-top="0"
     fit-margin-left="0"
     fit-margin-right="0"
     fit-margin-bottom="0" />
  <metadata
     id="metadata3907">
    <rdf:RDF>
      <cc:Work
         rdf:about="">
        <dc:format>image/svg+xml</dc:format>
        <dc:type
           rdf:resource="http://purl.org/dc/dcmitype/StillImage" />
        <dc:title></dc:title>
      </cc:Work>
    </rdf:RDF>
  </metadata>
  <g
     inkscape:groupmode="layer"
     id="layer2"
     inkscape:label="icon"
     style="display:inline"
     transform="translate(-99.597438,-298.74336)">
    <path
       sodipodi:nodetypes="zcczcczcczcczccz"
       inkscape:connector-curvature="0"
       id="path4778"
       d="m 291.45908,300.96461 c -1.64221,-2.45362 -4.10387,-2.21492 -4.10387,-2.21492 h -91.80856 c 0,0 -2.54991,-0.20522 -4.17867,2.23648 -1.62877,2.44165 -0.68169,4.86965 -0.68169,4.86965 l 21.11128,53.36867 c 0,0 0.36458,0.80588 1.03478,1.57944 0.6702,0.77347 1.46298,1.2862 1.46298,1.2862 l 25.11327,13.31979 c 0,0 0.82317,0.41508 1.93958,0.43671 1.11639,0.0221 2.26568,-0.50577 2.26568,-0.50577 l 24.96602,-13.22816 c 0,0 0.81934,-0.43272 1.54283,-1.27424 0.72348,-0.8416 0.99659,-1.63416 0.99659,-1.63416 l 20.99915,-53.32871 c 0,0 0.98284,-2.45735 -0.65937,-4.91098 z"
       style="display:inline;fill:#3452d4;fill-opacity:1;stroke:none;stroke-width:1" />
    <path
       style="display:inline;fill:#3452d4;fill-opacity:1;stroke:none;stroke-width:1"
       d="m 291.45908,579.34376 c -1.64221,2.45362 -4.10387,2.21494 -4.10387,2.21494 h -91.80856 c 0,0 -2.54991,0.20525 -4.17867,-2.23641 -1.62877,-2.44174 -0.68169,-4.86965 -0.68169,-4.86965 l 21.11128,-53.36867 c 0,0 0.36458,-0.80597 1.03478,-1.57944 0.6702,-0.77356 1.46298,-1.2862 1.46298,-1.2862 l 25.11327,-13.31988 c 0,0 0.82317,-0.41499 1.93958,-0.43671 1.11639,-0.0221 2.26568,0.50578 2.26568,0.50578 l 24.96602,13.22824 c 0,0 0.81934,0.43263 1.54283,1.27424 0.72348,0.8416 0.99659,1.63416 0.99659,1.63416 l 20.99915,53.32871 c 0,0 0.98284,2.45727 -0.65937,4.91089 z"
       id="path4830"
       inkscape:connector-curvature="0"
       sodipodi:nodetypes="zcczcczcczcczccz" />
    <path
       sodipodi:nodetypes="zcczcczcczcczccz"
       inkscape:connector-curvature="0"
       id="path4832"
       d="m 380.24759,390.10645 c 2.45363,1.64222 2.21494,4.1039 2.21494,4.1039 v 91.80851 c 0,0 0.20522,2.54992 -2.23647,4.17874 -2.44168,1.62873 -4.86965,0.68166 -4.86965,0.68166 l -53.36865,-21.11125 c 0,0 -0.80594,-0.36459 -1.57945,-1.0348 -0.77352,-0.67021 -1.28618,-1.46303 -1.28618,-1.46303 l -13.31985,-25.11325 c 0,0 -0.41503,-0.82319 -0.43672,-1.93953 -0.0217,-1.11643 0.50579,-2.26569 0.50579,-2.26569 l 13.22819,-24.96604 c 0,0 0.43266,-0.81937 1.27425,-1.54287 0.84158,-0.72341 1.63415,-0.99653 1.63415,-0.99653 l 53.32873,-20.99917 c 0,0 2.4573,-0.98288 4.91092,0.65935 z"
       style="display:inline;fill:#d92268;fill-opacity:1;stroke:none;stroke-width:1" />
    <path
       style="display:inline;fill:#d92268;fill-opacity:1;stroke:none;stroke-width:1"
       d="m 101.81871,490.20193 c -2.45363,-1.64223 -2.21494,-4.10382 -2.21494,-4.10382 v -91.80859 c 0,0 -0.20522,-2.54993 2.23647,-4.17866 2.44168,-1.62882 4.86965,-0.68175 4.86965,-0.68175 l 53.36865,21.11134 c 0,0 0.80594,0.36459 1.57945,1.03471 0.77352,0.67021 1.28618,1.46303 1.28618,1.46303 l 13.31985,25.11326 c 0,0 0.41503,0.82319 0.43672,1.93961 0.0217,1.11634 -0.50578,2.26568 -0.50578,2.26568 l -13.2282,24.96596 c 0,0 -0.43266,0.81938 -1.27425,1.54287 -0.84158,0.7235 -1.63415,0.99662 -1.63415,0.99662 l -53.32873,20.99909 c 0,0 -2.4573,0.98287 -4.91092,-0.65935 z"
       id="path4834"
       inkscape:connector-curvature="0"
       sodipodi:nodetypes="zcczcczcczcczccz" />
    <path
       style="display:inline;fill:#b5e23a;fill-opacity:1;stroke:none;stroke-width:1"
       d="m 178.26777,306.07583 c -2.89619,-0.57382 -4.46807,1.33567 -4.46807,1.33567 l -64.91846,64.91846 c 0,0 -1.94816,1.65792 -1.37334,4.5362 0.57482,2.8782 2.96133,3.92539 2.96133,3.92539 l 52.66527,22.80939 c 0,0 0.82769,0.31207 1.84854,0.38512 1.02086,0.073 1.94395,-0.12506 1.94395,-0.12506 l 27.17633,-8.33916 c 0,0 0.87553,-0.28857 1.68028,-1.06271 0.80478,-0.77407 1.24444,-1.95973 1.24444,-1.95973 l 8.2999,-27.00739 c 0,0 0.27342,-0.8853 0.18991,-1.99197 -0.0835,-1.10666 -0.45082,-1.86019 -0.45082,-1.86019 l -22.86047,-52.55779 c 0,0 -1.04259,-2.43249 -3.93879,-3.00623 z"
       id="path4836"
       inkscape:connector-curvature="0"
       sodipodi:nodetypes="zcczcczcczcczccz" />
    <path
       sodipodi:nodetypes="zcczcczcczcczccz"
       inkscape:connector-curvature="0"
       id="path4838"
       d="m 375.11156,502.91955 c 0.57377,2.89627 -1.33568,4.46807 -1.33568,4.46807 l -64.91845,64.91846 c 0,0 -1.65794,1.94818 -4.53619,1.37334 -2.87825,-0.57476 -3.92539,-2.96126 -3.92539,-2.96126 l -22.8094,-52.66529 c 0,0 -0.31209,-0.82769 -0.38515,-1.84857 -0.0731,-1.02089 0.12502,-1.94394 0.12502,-1.94394 l 8.33921,-27.17633 c 0,0 0.2886,-0.87554 1.06268,-1.68032 0.77405,-0.80469 1.95972,-1.24437 1.95972,-1.24437 l 27.00739,-8.29996 c 0,0 0.8853,-0.27337 1.99198,-0.18988 1.10666,0.0831 1.86021,0.45079 1.86021,0.45079 l 52.55775,22.86047 c 0,0 2.43255,1.04261 3.0063,3.93879 z"
       style="display:inline;fill:#b5e23a;fill-opacity:1;stroke:none;stroke-width:1" />
    <path
       style="display:inline;fill:#f95139;fill-opacity:1;stroke:none;stroke-width:1"
       d="m 304.08354,306.32562 c 2.89619,-0.57374 4.46806,1.33567 4.46806,1.33567 l 64.91846,64.91846 c 0,0 1.94817,1.658 1.37335,4.5362 -0.57483,2.87828 -2.96134,3.92539 -2.96134,3.92539 l -52.66527,22.80939 c 0,0 -0.82768,0.31215 -1.84854,0.38521 -1.02086,0.073 -1.94395,-0.12507 -1.94395,-0.12507 L 288.248,395.77163 c 0,0 -0.87555,-0.28856 -1.6803,-1.06263 -0.80477,-0.77406 -1.24443,-1.95972 -1.24443,-1.95972 l -8.2999,-27.00739 c 0,0 -0.27342,-0.8853 -0.18991,-1.99197 0.0835,-1.10667 0.45082,-1.8602 0.45082,-1.8602 l 22.86046,-52.55778 c 0,0 1.04261,-2.43258 3.9388,-3.00632 z"
       id="path4840"
       inkscape:connector-curvature="0"
       sodipodi:nodetypes="zcczcczcczcczccz" />
    <path
       sodipodi:nodetypes="zcczcczcczcczccz"
       inkscape:connector-curvature="0"
       id="path4842"
       d="m 177.98276,573.98275 c -2.89619,0.57374 -4.46807,-1.33567 -4.46807,-1.33567 l -64.91846,-64.91845 c 0,0 -1.94816,-1.65793 -1.37334,-4.53621 0.57482,-2.8782 2.96133,-3.92538 2.96133,-3.92538 l 52.66527,-22.8094 c 0,0 0.82769,-0.31207 1.84854,-0.38512 1.02086,-0.073 1.94395,0.12498 1.94395,0.12498 l 27.17632,8.33924 c 0,0 0.87554,0.28857 1.68029,1.06272 0.80477,0.77398 1.24444,1.95972 1.24444,1.95972 l 8.2999,27.00739 c 0,0 0.27342,0.8853 0.1899,1.99197 -0.0835,1.10666 -0.45081,1.86019 -0.45081,1.86019 l -22.86047,52.5577 c 0,0 -1.0426,2.43258 -3.93879,3.00632 z"
       style="display:inline;fill:#f95139;fill-opacity:1;stroke:none;stroke-width:1" />
    <g
       aria-label="Kaleidos"
       style="font-style:normal;font-weight:normal;font-size:196.51634216px;line-height:1.25;font-family:sans-serif;letter-spacing:0px;word-spacing:0px;fill:#3452d4;fill-opacity:1;stroke:none;stroke-width:1.17858469"
       id="text4846"
       transform="matrix(0.84847529,0,0,0.84847529,11.818171,-228.77766)">
      <path
         d="m 567.21393,801.06817 -25.15409,25.54713 v 35.56945 H 522.4082 V 724.62331 h 19.65164 v 76.83789 l 74.67621,-76.83789 h 22.40286 l -58.75839,61.90265 62.4922,75.65879 h -22.99241 z"
         style="font-style:normal;font-variant:normal;font-weight:500;font-stretch:normal;font-family:Montserrat;-inkscape-font-specification:'Montserrat Medium';letter-spacing:-4.46999979px;fill:#3452d4;fill-opacity:1;stroke-width:1.17858469"
         id="path4848"
         inkscape:connector-curvature="0" />
      <path
         d="m 691.674,757.04851 q 21.6168,0 33.01474,10.61188 11.59447,10.61189 11.59447,31.63913 v 62.88523 h -17.88299 v -13.75614 q -4.71639,7.2711 -13.55963,11.20143 -8.64672,3.73381 -20.63421,3.73381 -17.48996,0 -28.10184,-8.4502 -10.41537,-8.4502 -10.41537,-22.20635 0,-13.75614 10.02234,-22.00983 10.02233,-8.4502 31.83565,-8.4502 h 29.87048 v -3.73381 q 0,-12.18401 -7.07459,-18.66905 -7.07459,-6.48504 -20.83073,-6.48504 -9.23627,0 -18.0795,3.14426 -8.84324,2.94774 -14.93525,8.05717 l -7.86065,-14.14918 q 8.05717,-6.48504 19.2586,-9.82582 11.20143,-3.53729 23.77848,-3.53729 z m -4.32336,91.77313 q 10.8084,0 18.66905,-4.71639 7.86066,-4.91291 11.39795,-13.75614 V 815.8069 h -29.08442 q -23.97499,0 -23.97499,16.11434 0,7.86065 6.092,12.38053 6.09201,4.51987 16.90041,4.51987 z"
         style="font-style:normal;font-variant:normal;font-weight:500;font-stretch:normal;font-family:Montserrat;-inkscape-font-specification:'Montserrat Medium';letter-spacing:-4.46999979px;fill:#3452d4;fill-opacity:1;stroke-width:1.17858469"
         id="path4850"
         inkscape:connector-curvature="0" />
      <path
         d="m 766.72556,716.36963 h 18.86557 v 145.81512 h -18.86557 z"
         style="font-style:normal;font-variant:normal;font-weight:500;font-stretch:normal;font-family:Montserrat;-inkscape-font-specification:'Montserrat Medium';letter-spacing:-4.46999979px;fill:#3452d4;fill-opacity:1;stroke-width:1.17858469"
         id="path4852"
         inkscape:connector-curvature="0" />
      <path
         d="m 911.27329,810.69747 q 0,2.16168 -0.39304,5.69898 h -84.50202 q 1.76864,13.75614 11.98749,22.20634 10.41537,8.25369 25.74365,8.25369 18.66905,0 30.067,-12.57705 l 10.41536,12.18402 q -7.07459,8.25368 -17.68647,12.57704 -10.41537,4.32336 -23.38544,4.32336 -16.50738,0 -29.28094,-6.68155 -12.77356,-6.87808 -19.84815,-19.06209 -6.87807,-12.18401 -6.87807,-27.51229 0,-15.13176 6.68155,-27.31577 6.87808,-12.18401 18.66906,-18.86557 11.98749,-6.87807 26.92274,-6.87807 14.93524,0 26.5297,6.87807 11.79098,6.68156 18.27602,18.86557 6.68156,12.18401 6.68156,27.90532 z m -51.48728,-37.73114 q -13.55963,0 -22.7959,8.25369 -9.03975,8.25369 -10.61188,21.6168 h 66.81555 q -1.57213,-13.1666 -10.8084,-21.42028 -9.03975,-8.45021 -22.59937,-8.45021 z"
         style="font-style:normal;font-variant:normal;font-weight:500;font-stretch:normal;font-family:Montserrat;-inkscape-font-specification:'Montserrat Medium';letter-spacing:-4.46999979px;fill:#3452d4;fill-opacity:1;stroke-width:1.17858469"
         id="path4854"
         inkscape:connector-curvature="0" />
      <path
         d="m 932.80794,758.03109 h 18.86557 v 104.15366 h -18.86557 z m 9.43279,-20.04466 q -5.50246,0 -9.23627,-3.5373 -3.53729,-3.53729 -3.53729,-8.64672 0,-5.10942 3.53729,-8.64672 3.73381,-3.73381 9.23627,-3.73381 5.50246,0 9.03975,3.5373 3.73381,3.34077 3.73381,8.4502 0,5.30594 -3.73381,9.03975 -3.53729,3.5373 -9.03975,3.5373 z"
         style="font-style:normal;font-variant:normal;font-weight:500;font-stretch:normal;font-family:Montserrat;-inkscape-font-specification:'Montserrat Medium';letter-spacing:-4.46999979px;fill:#3452d4;fill-opacity:1;stroke-width:1.17858469"
         id="path4856"
         inkscape:connector-curvature="0" />
      <path
         d="m 1081.4825,716.36963 v 145.81512 h -18.0795 v -16.50737 q -6.2885,8.64672 -15.9178,13.1666 -9.6293,4.51987 -21.2238,4.51987 -15.1318,0 -27.11925,-6.68155 -11.9875,-6.68156 -18.86557,-18.66906 -6.68155,-12.18401 -6.68155,-27.90532 0,-15.7213 6.68155,-27.7088 6.87807,-11.9875 18.86557,-18.66905 11.98745,-6.68156 27.11925,-6.68156 11.2014,0 20.6342,4.32336 9.4328,4.12684 15.7213,12.38053 v -57.38277 z m -53.649,130.48685 q 9.8259,0 17.883,-4.51988 8.0572,-4.71639 12.5771,-12.97008 4.5198,-8.4502 4.5198,-19.2586 0,-10.8084 -4.5198,-19.06208 -4.5199,-8.45021 -12.5771,-12.97008 -8.0571,-4.51988 -17.883,-4.51988 -10.0223,0 -18.0795,4.51988 -7.8606,4.51987 -12.57701,12.97008 -4.51988,8.25368 -4.51988,19.06208 0,10.8084 4.51988,19.2586 4.71641,8.25369 12.57701,12.97008 8.0572,4.51988 18.0795,4.51988 z"
         style="font-style:normal;font-variant:normal;font-weight:500;font-stretch:normal;font-family:Montserrat;-inkscape-font-specification:'Montserrat Medium';letter-spacing:-4.46999979px;fill:#3452d4;fill-opacity:1;stroke-width:1.17858469"
         id="path4858"
         inkscape:connector-curvature="0" />
      <path
         d="m 1157.3171,863.36385 q -15.5248,0 -27.9053,-6.87807 -12.3806,-6.87807 -19.4552,-18.86557 -6.878,-12.18401 -6.878,-27.51229 0,-15.32827 6.878,-27.31577 7.0746,-12.18401 19.4552,-18.86557 12.3805,-6.87807 27.9053,-6.87807 15.5248,0 27.7088,6.87807 12.3805,6.68156 19.2586,18.86557 7.0746,11.9875 7.0746,27.31577 0,15.32828 -7.0746,27.51229 -6.8781,11.9875 -19.2586,18.86557 -12.184,6.87807 -27.7088,6.87807 z m 0,-16.50737 q 10.0223,0 17.883,-4.51988 8.0571,-4.71639 12.577,-12.97008 4.5199,-8.4502 4.5199,-19.2586 0,-10.8084 -4.5199,-19.06208 -4.5199,-8.45021 -12.577,-12.97008 -7.8607,-4.51988 -17.883,-4.51988 -10.0223,0 -18.0795,4.51988 -7.8607,4.51987 -12.5771,12.97008 -4.5198,8.25368 -4.5198,19.06208 0,10.8084 4.5198,19.2586 4.7164,8.25369 12.5771,12.97008 8.0572,4.51988 18.0795,4.51988 z"
         style="font-style:normal;font-variant:normal;font-weight:500;font-stretch:normal;font-family:Montserrat;-inkscape-font-specification:'Montserrat Medium';letter-spacing:-4.46999979px;fill:#3452d4;fill-opacity:1;stroke-width:1.17858469"
         id="path4860"
         inkscape:connector-curvature="0" />
      <path
         d="m 1262.8502,863.36385 q -12.7736,0 -24.5646,-3.34078 -11.791,-3.53729 -18.4725,-8.84323 l 7.8606,-14.93524 q 6.8781,4.9129 16.7039,7.86065 9.8258,2.94775 19.8482,2.94775 24.761,0 24.761,-14.14918 0,-4.71639 -3.3408,-7.46762 -3.3407,-2.75123 -8.4502,-3.93033 -4.9129,-1.37561 -14.1491,-2.94774 -12.5771,-1.96517 -20.6342,-4.51988 -7.8607,-2.55471 -13.5597,-8.64672 -5.699,-6.09201 -5.699,-17.09692 0,-14.14918 11.791,-22.59938 11.791,-8.64672 31.6392,-8.64672 10.4153,0 20.8307,2.55471 10.4154,2.55472 17.0969,6.87807 l -8.0572,14.93525 q -12.7735,-8.25369 -30.067,-8.25369 -11.9875,0 -18.276,3.93033 -6.2885,3.93032 -6.2885,10.41536 0,5.10943 3.5373,8.05717 3.5373,2.94775 8.6467,4.32336 5.306,1.37562 14.7387,3.14426 12.5771,2.16168 20.2412,4.7164 7.8607,2.35819 13.3631,8.25368 5.5025,5.89549 5.5025,16.50738 0,14.14917 -12.184,22.59938 -11.9875,8.25368 -32.8182,8.25368 z"
         style="font-style:normal;font-variant:normal;font-weight:500;font-stretch:normal;font-family:Montserrat;-inkscape-font-specification:'Montserrat Medium';letter-spacing:-4.46999979px;fill:#3452d4;fill-opacity:1;stroke-width:1.17858469"
         id="path4862"
         inkscape:connector-curvature="0" />
    </g>
  </g>
  <g
     inkscape:groupmode="layer"
     id="layer3"
     inkscape:label="letras"
     style="display:inline"
     transform="translate(-99.597438,-298.74336)" />
</svg>
