<?xml version="1.0" encoding="UTF-8"?>
<svg enable-background="new 0 0 141.1 32" version="1.1" viewBox="0 0 141.1 32" xml:space="preserve" xmlns="http://www.w3.org/2000/svg">
	<path class="color-fill" d="M12.2,24.4C5.5,24.4,0,18.9,0,12.2S5.5,0,12.2,0s12.2,5.5,12.2,12.2S18.9,24.4,12.2,24.4z M12.2,1.9     C6.5,1.9,1.9,6.5,1.9,12.2s4.6,10.3,10.3,10.3s10.3-4.6,10.3-10.3S17.9,1.9,12.2,1.9z"/>
	<path class="color-fill" d="m7.4 17-1.8-0.8v-0.3h2.2s1.1-1.5 1.7-2.2 1.3-1.6 1.3-1.6l-6-2.7 0.3-0.4 7.7 1s2.2-2.3 3-3c0.3-0.3 1.5-1 1.9-0.5l0.1 0.1c0.5 0.5-0.2 1.6-0.5 1.9-0.7 0.8-3 3-3 3l1.1 7.7-0.4 0.4-2.7-6s-0.9 0.8-1.6 1.3c-0.7 0.6-2.2 1.7-2.2 1.7v2.2h-0.3l-0.8-1.8z"/>
	<path class="color-fill" d="m12.2 32c-1.2 0-2.5-0.1-3.7-0.4-0.5-0.1-0.8-0.6-0.7-1.1s0.6-0.9 1.1-0.8c2.2 0.4 4.4 0.4 6.6 0 0.5-0.1 1 0.2 1.1 0.8 0.1 0.5-0.2 1-0.8 1.1-1.1 0.3-2.4 0.4-3.6 0.4z"/>
	<path class="color-fill" d="m12.2 28.2c-1.7 0-3.3-0.3-4.9-0.8-0.5-0.2-0.8-0.7-0.6-1.2s0.7-0.8 1.2-0.6c2.8 0.9 5.8 0.9 8.6 0 0.5-0.2 1.1 0.1 1.2 0.6 0.2 0.5-0.1 1.1-0.6 1.2-1.6 0.5-3.2 0.8-4.9 0.8z"/>
	<path class="color-fill" d="M33.8,9.5V7.4H46v2.1h-4.9v14.3h-2.4V9.5H33.8z"/>
	<path class="color-fill" d="m46.3 23.8v-11.6h2.2v1.6c0.7-1.1 1.7-1.7 3.1-1.7 0.2 0 0.5 0 0.8 0.1v2.3c-0.2 0-0.4-0.1-0.6-0.1h-0.4c-1.1 0-1.9 0.4-2.4 1.3-0.1 0.1-0.1 0.3-0.2 0.4s-0.1 0.3-0.1 0.5-0.1 0.3-0.1 0.4 0 0.3 0 0.4 0 0.2 0 0.4v0.5 5.5h-2.3z"/>
	<path class="color-fill" d="m53.6 18c0-0.8 0.1-1.5 0.3-2.3 0.2-0.7 0.6-1.4 1-1.9s1-1 1.7-1.4c0.7-0.3 1.4-0.5 2.2-0.5 1.7 0 3 0.6 3.9 1.7v-1.4h2.2v11.6h-2.2v-1.3c-0.5 0.6-1.1 1-1.7 1.3s-1.3 0.4-2.2 0.4c-0.8 0-1.6-0.2-2.2-0.5-0.6-0.4-1.2-0.8-1.6-1.4s-0.8-1.2-1-2c-0.3-0.8-0.4-1.5-0.4-2.3zm2.4-1.5c-0.1 0.4-0.2 0.7-0.2 1.1s0 0.8 0 1.1c0 0.4 0.1 0.7 0.3 1.1 0.1 0.3 0.3 0.6 0.5 0.9 0.3 0.4 0.6 0.7 1 0.9s0.9 0.3 1.5 0.3c1.1 0 2-0.4 2.6-1.1 0.6-0.8 0.9-1.7 0.9-2.8 0-0.5-0.1-1.1-0.2-1.6s-0.4-0.9-0.7-1.3-0.7-0.7-1.1-0.9-0.9-0.3-1.5-0.3c-0.4 0-0.8 0.1-1.2 0.2-0.3 0.1-0.6 0.3-0.9 0.5s-0.5 0.5-0.6 0.8c-0.1 0.5-0.3 0.8-0.4 1.1z"/>
	<path class="color-fill" d="M66.8,12.2h2.4l2.9,8.3l2.8-8.3h2.3L73,23.8h-2L66.8,12.2z"/>
	<path class="color-fill" d="m78.2 17.9c0-0.6 0.1-1.1 0.2-1.7 0.1-0.5 0.3-1 0.5-1.4s0.5-0.8 0.8-1.1 0.6-0.6 1-0.9c0.5-0.3 1-0.6 1.5-0.7s1.1-0.2 1.7-0.2c0.5 0 1 0.1 1.5 0.2s1 0.4 1.5 0.7 0.9 0.7 1.3 1.3c0.4 0.5 0.6 1.2 0.8 1.9 0.1 0.6 0.2 1.4 0.2 2.2v0.3h-8.6c0 1.1 0.4 2 1 2.7 0.5 0.6 1.3 0.9 2.4 0.9 0.3 0 0.6 0 0.9-0.1s0.5-0.2 0.8-0.3 0.4-0.3 0.6-0.5 0.3-0.4 0.4-0.7h2.3c-0.4 0.9-0.8 1.6-1.3 2.1s-1 0.9-1.6 1.1c-0.4 0.2-0.8 0.3-1.1 0.3-0.3 0.1-0.7 0.1-1.1 0.1-1.7 0-3.1-0.6-4.2-1.7-1-1-1.5-2.6-1.5-4.5zm8.5-1.1c-0.1-0.9-0.4-1.6-0.9-2.1-0.6-0.5-1.2-0.8-2-0.8s-1.5 0.3-2 0.8c-0.6 0.5-0.9 1.2-1 2.1h5.9z"/>
	<path class="color-fill" d="m96.7 23.8v-16.4h6.6c0.5 0 1 0.1 1.4 0.2 0.5 0.1 0.9 0.3 1.3 0.5s0.8 0.5 1.1 0.8 0.6 0.7 0.9 1.1c0.5 0.8 0.7 1.7 0.7 2.8 0 1-0.2 1.9-0.7 2.8-0.5 0.8-1.2 1.5-2 1.9s-1.7 0.7-2.7 0.7h-4.2v5.8l-2.4-0.2zm2.4-7.9h4.2c1 0 1.7-0.3 2.3-0.9s0.9-1.4 0.9-2.3-0.3-1.7-0.9-2.3-1.4-0.9-2.3-0.9h-4.2v6.4z"/>
	<path class="color-fill" d="m109.5 17.9c0-0.6 0.1-1.1 0.2-1.7 0.1-0.5 0.3-1 0.5-1.4s0.5-0.8 0.8-1.1 0.6-0.6 1-0.9c0.5-0.3 1-0.6 1.5-0.7 0.5-0.2 1.1-0.2 1.7-0.2 0.5 0 1 0.1 1.5 0.2s1 0.4 1.5 0.7 0.9 0.7 1.3 1.3c0.4 0.5 0.6 1.2 0.8 1.9 0.1 0.6 0.2 1.4 0.2 2.2v0.3h-8.6c0 1.1 0.4 2 1 2.7 0.5 0.6 1.3 0.9 2.4 0.9 0.3 0 0.6 0 0.9-0.1s0.5-0.2 0.8-0.3c0.2-0.1 0.4-0.3 0.6-0.5s0.3-0.4 0.4-0.7h2.4c-0.4 0.9-0.8 1.6-1.3 2.1s-1 0.9-1.6 1.1c-0.4 0.2-0.8 0.3-1.1 0.3-0.3 0.1-0.7 0.1-1.1 0.1-1.7 0-3.1-0.6-4.2-1.7-1.1-1-1.6-2.6-1.6-4.5zm8.5-1.1c-0.1-0.9-0.4-1.6-0.9-2.1-0.6-0.5-1.2-0.8-2-0.8s-1.5 0.3-2 0.8c-0.6 0.5-0.9 1.2-1 2.1h5.9z"/>
	<path class="color-fill" d="m123.1 23.8v-11.6h2.2v1.6c0.7-1.1 1.7-1.7 3.1-1.7 0.2 0 0.5 0 0.8 0.1v2.3c-0.2 0-0.4-0.1-0.6-0.1h-0.4c-1.1 0-1.9 0.4-2.4 1.3-0.1 0.1-0.1 0.3-0.2 0.4s-0.1 0.3-0.1 0.5-0.1 0.3-0.1 0.4 0 0.3 0 0.4 0 0.2 0 0.4v0.5 5.5h-2.3z"/>
	<path class="color-fill" d="m131.3 23.8v-16.4h2.2v9.4l4.6-4.6h2.9l-5.4 5.3 5.5 6.2h-3.1l-4.5-5.3v5.3l-2.2 0.1z"/>
	<path class="color-fill" d="m91.8 21.5c0 0.8 0.2 1.3 0.7 1.8 0.4 0.4 0.9 0.6 1.6 0.6v-16.5h-2.2l-0.1 14.1z"/>
</svg>
