<?xml version="1.0" encoding="utf-8"?>
<!-- Generator: Adobe Illustrator 24.2.3, SVG Export Plug-In . SVG Version: 6.00 Build 0)  -->
<svg version="1.1" id="Layer_1" xmlns="http://www.w3.org/2000/svg" xmlns:xlink="http://www.w3.org/1999/xlink" x="0px" y="0px"
	 viewBox="0 0 1024 768" style="enable-background:new 0 0 1024 768;" xml:space="preserve">
<style type="text/css">
	.st0{fill:#06041F;}
	.st1{fill:#47D7AC;}
</style>
<path class="st0" d="M260.1,579.2v-66.2h16.4v10.8c2.5-3.9,6.2-7,10.5-8.9c5-2.4,10.5-3.6,16.1-3.5c13.5,0,21.6,4.7,24.4,14.1
	c1,3.5,1.6,8.3,1.6,14.5v39.2h-16.6V544c0-5.3-0.6-9.1-1.9-11.2c-2-4-6.5-6-13.3-6c-4,0-8,1-11.7,2.8c-3.5,1.5-6.5,4-8.6,7.2v42.4
	H260.1z"/>
<path class="st0" d="M402.3,581.3c-8.3,0-13.3-2.8-15.2-8.5c-5.1,6.1-13.1,9.2-24.1,9.2c-8.4,0-15-1.9-19.6-5.7
	c-4.5-3.6-7.1-9.1-6.9-14.9c0-9.7,5-16,14.9-18.9c6.3-1.8,14.2-2.7,23.6-2.7c3.3,0,6.5,0.3,9.7,0.8v-2.1c0.1-2.8-0.9-5.6-2.7-7.7
	c-2.4-2.5-6.9-3.7-13.6-3.7c-10.5,0-19.1,2.6-25.8,7.9h-0.5v-15c8.1-5.2,18.1-7.9,30-7.9c9.6,0,16.8,1.8,21.6,5.5
	c2.6,2,4.6,4.6,5.8,7.7c1.2,3.1,1.8,7.2,1.8,12.5c0,1.6,0,4.5-0.1,8.6s-0.1,7-0.1,8.7c0,4.9,0.2,7.8,0.7,8.8
	c0.7,1.9,2.5,2.8,5.3,2.8c1.8,0,3.6-0.2,5.3-0.8v13.6C410,580.7,406.6,581.3,402.3,581.3z M384.8,552.8c-3.2-0.5-6.4-0.7-9.6-0.7
	c-4.7-0.1-9.3,0.3-13.9,1.3c-5.2,1.1-7.9,3.7-7.9,7.7c0,5.3,4.4,8,13,8c8.2,0,14.3-2.4,18.4-7.3C384.8,560.1,384.8,557,384.8,552.8z
	"/>
<path class="st0" d="M422.7,584.6h0.5c7.7,5.7,17.6,8.5,29.6,8.5c9.3,0,16-2.1,19.9-6.3c2.7-2.8,4-7.4,4-13.9v-4.9
	c-1.9,3.1-5.1,5.7-9.7,7.9c-5,2.2-10.3,3.3-15.8,3.2c-10.6,0-19.3-2.7-26-8.1c-6.8-5.4-10.2-13.3-10.2-23.7
	c-0.1-5.6,1-11.2,3.4-16.3c2-4.4,5.1-8.2,9-11.1c3.6-2.6,7.7-4.6,11.9-5.9c4.2-1.3,8.5-1.9,12.9-1.9c5.3-0.1,10.5,0.9,15.5,2.9
	c4.6,1.9,7.7,4.2,9.2,7.1v-8h16v58.1c0,9.4-1.7,16.7-5.2,21.8c-6.2,9.1-17.9,13.7-34.9,13.7c-6,0.1-12-0.6-17.9-2
	c-5.3-1.3-9.4-3-12.3-4.9L422.7,584.6z M476.1,536.6c-1.8-3.3-4.6-6-8.1-7.5c-4-1.8-8.4-2.7-12.9-2.7c-5.9-0.2-11.6,1.6-16.4,5.1
	c-4.5,3.4-6.8,8.5-6.8,15.3c0,5.9,2.2,10.3,6.7,13.3c4.8,3.1,10.5,4.7,16.2,4.6c4.4,0,8.8-0.9,12.8-2.7c3.5-1.4,6.4-4,8.4-7.2
	L476.1,536.6z"/>
<path class="st0" d="M566.2,581.3c-8.3,0-13.3-2.8-15.2-8.5c-5.1,6.1-13.1,9.2-24.1,9.2c-8.4,0-15-1.9-19.6-5.7
	c-4.5-3.6-7.1-9.1-6.9-14.9c0-9.7,5-16,14.9-18.9c6.3-1.8,14.2-2.7,23.6-2.7c3.3,0,6.5,0.3,9.7,0.8v-2.1c0.1-2.8-0.8-5.6-2.7-7.7
	c-2.4-2.5-6.9-3.7-13.6-3.7c-10.5,0-19.1,2.6-25.9,7.9H506v-15c8.1-5.2,18.1-7.9,30-7.9c9.6,0,16.8,1.8,21.6,5.5
	c2.6,2,4.6,4.6,5.8,7.7c1.2,3.1,1.8,7.2,1.8,12.5c0,1.6,0,4.5-0.1,8.6s-0.1,7-0.1,8.7c0,4.9,0.2,7.8,0.7,8.8
	c0.7,1.9,2.5,2.8,5.3,2.8c1.8,0,3.6-0.2,5.3-0.8v13.6C573.9,580.7,570.5,581.3,566.2,581.3z M548.6,552.8c-3.2-0.5-6.4-0.7-9.6-0.7
	c-4.7-0.1-9.3,0.3-13.8,1.3c-5.2,1.1-7.9,3.7-7.9,7.7c0,5.3,4.3,8,13,8c8.2,0,14.3-2.4,18.4-7.3C548.7,560.1,548.6,557,548.6,552.8
	L548.6,552.8z"/>
<path class="st0" d="M583.7,580.2V514h16.4v11.2c1.2-3.3,3.8-6.3,7.6-8.9c4.1-2.8,9-4.2,14-4c3.9,0,6.9,0.6,9.1,1.9v16.7h-0.5
	c-3.2-1.4-6.6-2.1-10.1-2c-4.4-0.1-8.7,0.7-12.7,2.6c-3.1,1.4-5.6,4-6.9,7.1v41.7L583.7,580.2z"/>
<path class="st0" d="M638.4,580.2V514h16.4v11.2c1.3-3.3,3.8-6.3,7.6-8.9c4.1-2.8,9-4.2,14-4c3.9,0,6.9,0.6,9.1,1.9v16.7h-0.5
	c-3.2-1.4-6.6-2.1-10.1-2c-4.4-0.1-8.7,0.7-12.7,2.6c-3.1,1.4-5.6,4-6.9,7.1v41.7L638.4,580.2z"/>
<path class="st0" d="M753.1,572.1c-7.2,6.6-16.5,9.9-28,9.9c-11.5,0-20.8-3.2-27.9-9.7c-7.1-6.5-10.6-14.9-10.6-25.2
	c0-10.3,3.6-18.7,10.9-25.1c7.2-6.5,16.6-9.8,28-9.8c11.8,0,21.1,3.2,28,9.6s10.4,14.8,10.3,25.3
	C763.9,557.2,760.3,565.5,753.1,572.1z M741.2,532.5c-4-3.8-9.1-5.7-15.8-5.7s-11.8,1.9-16,5.7c-4.1,3.7-6.4,9-6.2,14.5
	c-0.2,5.6,2.1,10.9,6.3,14.6c4.2,3.7,9.4,5.5,15.8,5.5c6.6,0,11.7-1.9,15.8-5.7c4-3.7,6.2-9,6-14.4
	C747.3,541.6,745.1,536.3,741.2,532.5z"/>
<path class="st1" d="M599.1,442.4c-36.3,0-82.5-23.5-122.7-63c-1.8,5-3.9,9.9-6.3,14.7c-13.9,28.2-33.8,43.8-56.2,43.8
	s-42.5-15.2-56.6-42.8c-12.9-25.2-19.9-59-19.9-95.1c0-58.9,19.5-108.6,50.8-129.7c21.7-14.6,49.1-16.4,79-5.4
	c25.5,9.4,52.8,28.3,79.8,55c2.4-6.4,5.3-12.7,8.7-18.7c14.1-25,33.8-38.8,55.5-38.8c43.1,0,75.5,59.1,75.5,137.6
	c0,34-6.2,65.3-18,90.4c-5.8,12.3-12.7,22.7-20.6,30.9c-8.3,8.6-17.5,14.7-27.3,17.9C613.7,441.4,606.4,442.5,599.1,442.4z
	 M482,361.2c50.6,53,104.9,71.5,133.5,62c14.7-4.9,28.2-19.1,38-40c10.7-22.9,16.4-51.6,16.4-83.2c0-33.4-6.4-64.4-18.1-87.3
	c-11-21.6-25.4-33.4-40.7-33.4c-21.8,0-40.9,21.9-51,54.3c40.8,44.8,67.5,99.9,65.2,135.1c-0.8,12.6-5.4,22.7-13.2,29.1l-0.7,0.5
	c-8.7,5.8-18.9,6.1-28.8,0.8c-25.9-13.9-47-64.3-47-112.4c-0.1-16.3,1.9-32.6,5.8-48.5c-55.1-57.3-108.7-77.5-143.8-53.9
	c-26.4,17.8-43.4,63.2-43.4,115.8c0,67.9,26.2,121.1,59.8,121.1c20.9,0,39-21.8,49.4-55.4c-27-30-47.4-63.6-57.5-94.8
	c-9.9-30.5-8.8-55,3.1-67.4c7.7-8,18.9-9.9,30.8-5.1c24.7,9.9,49.7,47.4,49.7,99.7C489.6,319.5,487.1,340.6,482,361.2z M555.3,253.4
	c-1.9,10.9-2.9,22-2.9,33.1c0,45.5,20.1,87.9,38.1,97.6c5.5,2.9,8.8,1.8,11.2,0.3c4-3.5,6.3-9.2,6.8-17
	C610.4,339,588.4,292.8,555.3,253.4L555.3,253.4z M427.3,212.7c-2.3-0.1-4.6,0.8-6.2,2.5c-5.4,5.6-8.4,22.2,0.8,50.6
	c8.4,26,24.7,54,46.4,80c3-15.7,4.5-31.6,4.4-47.6c0-49.8-24-78.1-39.2-84.2C431.5,213.2,429.4,212.8,427.3,212.7L427.3,212.7z"/>
</svg>
