<?xml version="1.0" encoding="UTF-8" standalone="no"?>
<!-- Generator: Adobe Illustrator 21.1.0, SVG Export Plug-In . SVG Version: 6.00 Build 0)  -->

<svg
   xmlns:dc="http://purl.org/dc/elements/1.1/"
   xmlns:cc="http://creativecommons.org/ns#"
   xmlns:rdf="http://www.w3.org/1999/02/22-rdf-syntax-ns#"
   xmlns:svg="http://www.w3.org/2000/svg"
   xmlns="http://www.w3.org/2000/svg"
   xmlns:sodipodi="http://sodipodi.sourceforge.net/DTD/sodipodi-0.dtd"
   xmlns:inkscape="http://www.inkscape.org/namespaces/inkscape"
   version="1.1"
   id="Layer_1"
   x="0px"
   y="0px"
   viewBox="0 0 344.28958 178.83469"
   xml:space="preserve"
   sodipodi:docname="Librebit.svg"
   width="344.28958"
   height="178.83469"
   inkscape:version="0.92.4 (5da689c313, 2019-01-14)"><metadata
   id="metadata65"><rdf:RDF><cc:Work
       rdf:about=""><dc:format>image/svg+xml</dc:format><dc:type
         rdf:resource="http://purl.org/dc/dcmitype/StillImage" /><dc:title></dc:title></cc:Work></rdf:RDF></metadata><defs
   id="defs63" /><sodipodi:namedview
   pagecolor="#ffffff"
   bordercolor="#666666"
   borderopacity="1"
   objecttolerance="10"
   gridtolerance="10"
   guidetolerance="10"
   inkscape:pageopacity="0"
   inkscape:pageshadow="2"
   inkscape:window-width="1600"
   inkscape:window-height="871"
   id="namedview61"
   showgrid="false"
   fit-margin-top="0"
   fit-margin-left="0"
   fit-margin-right="0"
   fit-margin-bottom="0"
   inkscape:zoom="1.1125146"
   inkscape:cx="32.678494"
   inkscape:cy="35.763333"
   inkscape:window-x="1120"
   inkscape:window-y="1208"
   inkscape:window-maximized="1"
   inkscape:current-layer="Layer_1" /><style
   type="text/css"
   id="style2">
	.st0{fill:#FFFFFF;}
	.st1{fill:#1FB149;}
	.st2{fill:#1363A6;}
	.st3{fill:#1FAF4D;}
	.st4{fill:#0061A2;}
</style><path
   class="st1"
   d="m 253.3,41.1 c 1.7,-1.3 4.1,-2.3 5.5,-3.2 4.7,-3 9.6,-5.7 14.6,-8.2 7.1,-3.6 14.6,-6.6 22.5,-7.4 7.9,-0.8 16.2,0.8 22.5,5.8 -2.1,1 -4.6,-0.1 -6.9,-0.8 -7.4,-2.4 -15.4,-0.3 -22.6,2.3 -12.7,4.7 -24.8,11.2 -36.3,18.6 -0.8,0.5 -1.2,-4.8 -0.6,-5.7 0.2,-0.6 0.7,-1 1.3,-1.4"
   id="path6"
   inkscape:connector-curvature="0"
   style="fill:#1fb149" /><path
   class="st1"
   d="m 306.7,120.7 c 0.8,-0.4 1.7,-0.5 2.6,-0.2 2,0.8 2.6,3.6 1.8,5.6 -0.8,2 -2.5,3.4 -4.2,4.8 -15.1,12 -29.9,24.5 -46.7,33.8 -8.3,4.6 -17.1,8.4 -26.2,10.8 -4.6,1.2 -9.3,2.1 -14.1,2.6 -3.4,0.3 -10.5,1.6 -13.5,-0.2 2.4,-1.6 7.3,-1.7 10.3,-2.4 3.6,-0.9 7.2,-1.9 10.8,-3 7.1,-2.2 14.1,-5 20.9,-8.2 13.6,-6.4 26.4,-14.6 38,-24.4 6,-5.1 11.7,-10.6 17,-16.5 0.9,-1 2,-2.1 3.3,-2.7"
   id="path8"
   inkscape:connector-curvature="0"
   style="fill:#1fb149" /><path
   class="st2"
   d="M 337.9,13.1 C 331.5,4.5 320.9,0 307.2,0 287,0 261.8,9.6 237.2,26.3 235.1,24.8 232.6,24 229.9,24 c -7.3,0 -13.2,6.2 -13.2,13.8 0,1.3 0.2,2.6 0.5,3.8 1,3.8 3.5,6.9 6.8,8.6 1.8,0.9 3.7,1.4 5.8,1.4 7.3,0 13.2,-6.2 13.2,-13.8 0,-0.7 -0.1,-1.4 -0.2,-2 22.7,-15.4 46.3,-24.5 64.2,-24.5 7.2,0 16.9,1.5 22.3,8.8 14.2,19 -8.5,63.5 -49.5,97.3 -27,22.2 -57.5,36 -79.5,36 -7.2,0 -16.9,-1.5 -22.3,-8.8 -2.7,-3.6 -4,-8.1 -4.2,-13.2 -0.1,-1.6 0,-3.3 0.2,-5.1 -0.9,-2.1 -2.9,-3.6 -5.3,-3.6 -2.4,0 -4.4,1.5 -5.3,3.7 -0.1,1.4 -0.2,2.7 -0.2,4.1 0,8.1 2,15.3 6.3,21.1 6.4,8.6 17,13.1 30.7,13.1 24.7,0 56.9,-14.3 86.1,-38.4 47.4,-39 70,-88.6 51.6,-113.2 z M 230,44.1 c -3.3,0 -6,-2.23821 -6,-6.3 0,-3.940539 3.33474,-6.243196 6.1,-6.3 v 0 c 3.3,0 6,2.8 6,6.3 0,3.558374 -2.45777,6.3 -6.1,6.3 z"
   id="path12"
   inkscape:connector-curvature="0"
   style="fill:#1363a6"
   sodipodi:nodetypes="cscssccsscsccscccscscscccccccc" /><path
   class="st3"
   d="m 305.2,121.7 c 0,0 -34.8,43.7 -98.7,56.2 0,0 40.2,10.4 104,-50.5 0,0 2,-2.9 0,-6 -0.1,-0.1 -2.5,-2.7 -5.3,0.3 z"
   id="path14"
   inkscape:connector-curvature="0"
   style="fill:#1faf4d" /><path
   class="st3"
   d="m 252.5,48.1 c 0,0 38.5,-29.6 65.9,-20.1 0,0 -19.8,-21.2 -66.5,14.4 0,0 -0.7,4.4 0.6,5.7 z"
   id="path16"
   inkscape:connector-curvature="0"
   style="fill:#1faf4d" /><g
   id="g46"
   transform="translate(-348.7,-215.9)"><path
     class="st4"
     d="m 348.7,269.7 c 3.8,0 7.6,0 11.4,0 0,20.1 0,40.2 0,60.2 7.1,0 14.2,0 21.3,0 0,3.7 0,7.3 0,11 -8.3,-0.2 -16.7,0.3 -25,-0.3 -3.1,-0.1 -6.4,-2.1 -7.1,-5.3 -0.6,-2.7 -0.6,-5.6 -0.6,-8.3 0,-19.1 0,-38.2 0,-57.3 z"
     id="path30"
     inkscape:connector-curvature="0"
     style="fill:#0061a2" /><g
     id="g34"><path
       class="st4"
       d="m 399.9,269.7 c 3.5,0 7,0 10.5,0 0,9.9 0,19.8 0,29.7 3.6,-2.5 7.7,-4.5 12.1,-4.6 8.9,-0.6 17.6,4.7 21.6,12.6 3.5,6.5 3.6,14.6 0.2,21.1 -4.1,8.4 -13.6,13.9 -22.9,13 -8.3,-0.5 -16.1,-5.8 -19.5,-13.4 -2,-4.6 -1.9,-9.7 -2,-14.7 0,-14.6 0,-29.2 0,-43.7 z m 20.1,35.6 c -5.9,1.2 -10.4,7 -9.9,13 0,6.7 5.6,13 12.5,13 8,0.7 15.1,-7.2 13.7,-15 -0.8,-7.7 -9,-12.9 -16.3,-11 z"
       id="path32"
       inkscape:connector-curvature="0"
       style="fill:#0061a2" /></g><path
     class="st4"
     d="m 388,276.1 c 3.8,-1.9 9,0.9 9.1,5.3 0.6,5.3 -6.3,9.2 -10.4,5.7 -3.9,-2.7 -3,-9.2 1.3,-11 z"
     id="path36"
     inkscape:connector-curvature="0"
     style="fill:#0061a2" /><path
     class="st4"
     d="m 385.4,295.3 c 3.5,0 7,0 10.5,0 0,15.2 0,30.4 0,45.6 -3.5,0 -7,0 -10.5,0 0,-15.2 0,-30.4 0,-45.6 z"
     id="path38"
     inkscape:connector-curvature="0"
     style="fill:#0061a2" /><path
     class="st4"
     d="m 455.5,298.9 c 4,-3.6 9.7,-4.1 14.8,-4 0,3.4 0,6.8 0,10.2 -3.7,0.4 -8.6,1.3 -9.4,5.7 -1.4,10 -0.4,20.1 -0.7,30.1 -3.5,0 -7,0 -10.5,0 0,-8.9 0,-17.7 0,-26.6 0.1,-5.5 1.4,-11.7 5.8,-15.4 z"
     id="path40"
     inkscape:connector-curvature="0"
     style="fill:#0061a2" /><g
     id="g44"><path
       class="st4"
       d="m 469.7,318.3 c -0.4,-11.3 8.7,-21.8 19.9,-23.3 10.2,-1.7 21.1,4.3 24.9,13.9 1.5,3.5 1.8,8 -1,11 -2,2.4 -5.4,2.6 -8.4,2.7 -8.1,0.2 -16.3,0 -24.4,0.1 2.4,6.1 9.2,9.9 15.7,8.3 3.1,-0.5 5.3,-2.9 7.7,-4.7 3.6,-0.3 7.3,0 10.9,-0.1 -3.5,9.5 -13.4,16.2 -23.5,15.2 -11.8,-0.6 -21.9,-11.3 -21.8,-23.1 z m 11.2,-5 c 8.2,0 16.4,0 24.6,0 -2.2,-5.8 -8.8,-9.4 -14.9,-7.9 -4.5,0.6 -7.8,4 -9.7,7.9 z"
       id="path42"
       inkscape:connector-curvature="0"
       style="fill:#0061a2" /></g></g><g
   id="g58"
   transform="translate(-348.7,-215.9)"><g
     id="g50"><path
       class="st3"
       d="m 520,269.7 c 3.5,0 7,0 10.5,0 0,9.9 0,19.8 0,29.8 4,-2.8 8.6,-4.9 13.6,-4.7 9.3,0 18,6.4 21.3,14.9 2.7,6.8 1.9,14.8 -2.1,20.9 -4.7,7.4 -13.8,11.9 -22.5,10.7 -8.1,-0.8 -15.6,-6.1 -18.8,-13.6 -1.9,-4.5 -1.8,-9.5 -1.9,-14.4 C 520,298.8 520,284.2 520,269.7 Z m 20.6,35.5 c -5.8,0.9 -10.5,6.3 -10.5,12.2 -0.5,6.9 5,13.7 12,13.9 7.7,0.9 15.1,-6.2 14.3,-14 -0.2,-7.9 -8.3,-13.8 -15.8,-12.1 z"
       id="path48"
       inkscape:connector-curvature="0"
       style="fill:#1faf4d" /></g><path
     class="st3"
     d="m 572.6,276 c 3.8,-1.7 8.7,1 8.9,5.3 0.7,5.3 -6.1,9.3 -10.3,5.9 -4,-2.8 -3.2,-9.5 1.4,-11.2 z"
     id="path52"
     inkscape:connector-curvature="0"
     style="fill:#1faf4d" /><path
     class="st3"
     d="m 590.9,279.3 c 3.5,0 7,0 10.5,0 0,5.3 0,10.7 0,16 3.2,0 6.4,0 9.6,0 0,3.4 0,6.7 0,10.1 -3.2,0 -6.4,0 -9.6,0 0,5.3 -0.1,10.5 0,15.8 0.1,2.6 0.2,5.5 2.1,7.5 2,1.9 4.9,1.8 7.5,2.2 0,3.4 0,6.7 0,10.1 -4.9,-0.2 -10.1,-0.6 -14,-3.9 -3.8,-2.8 -5.6,-7.5 -5.9,-12.1 -0.4,-6.6 -0.1,-13.1 -0.2,-19.7 -2.6,0 -5.2,0 -7.8,0 0,-3.3 0,-6.7 0,-10 2.6,0 5.2,0 7.8,0 0,-5.3 0,-10.7 0,-16 z"
     id="path54"
     inkscape:connector-curvature="0"
     style="fill:#1faf4d" /><path
     class="st3"
     d="m 569.8,295.3 c 3.5,0 7,0 10.5,0 0,15.2 0,30.4 0,45.6 -3.5,0 -7,0 -10.5,0 0,-15.2 0,-30.4 0,-45.6 z"
     id="path56"
     inkscape:connector-curvature="0"
     style="fill:#1faf4d" /></g>
</svg>