<svg xmlns="http://www.w3.org/2000/svg" width="82" height="44" viewBox="0 0 82 44">
  <g id="cortegada_silueta" transform="translate(-140 -5165)">
    <path id="Trazado_11870" data-name="Trazado 11870" d="M847.335,183.618l-.679,1.245v.943l-.49,1.584-1.245.566,1.471,2.791h1.132l2.565,5.7.377-.49.641.981,2.2-2.452v.981l.214,1.471,1.056-.528v1.471h1.471l1.811-5.168,1.169-.528,1.622-2.3.453,1.622-.453.075.453,1.773,1.66-2.6-.34-1.32,1.283.943.3-1.509.868,1.207.264,1.773,1.132-2.037,1.4-.943,2.037-.717-1.509-2.075-.528-1.886-.943.528-.943-1.094-.075.264.415,1.094-1.32.754-2.339-2.867-.49-1.773-.151-1.32h-1.584l.34-1.7-1.018-1.735.226-.641-.641-1.66.264-.641-.6-.339-.641-1.773.679-1.32-.792-1.7.038-.83-1.471,1.471-1.584-1.471-.264-2.414h-1.245l-1.924-3.169-1.4-.377-.377-1.018-.339-1.471-.83-.566-.679.868-.377,1.169,1.509,1.622-2.15,1.32-.49-.981-1.848-.754-.943,1.207.717.641-.528.679-.49.189-1.018-.566.641,1.207.754.679,1.056.679-.189,1.169.491,1.962-1.245.3.076,2.716,1.018,1.283-.34.49-1.509-.754-.226.754.49,1.509.943.113-.453.868.226.83-.264.3-.377-.49-1.245.717,1.622,2.15.189,1.66a8.2,8.2,0,0,0-.377,1.056c0,.151,1.094-.49,1.094-.49l-.151.641.566-.49-.226,1.471,1.207-.943.151-.981.226.905Z" transform="translate(-681.007 5007.631)" fill="#364652"/>
    <rect id="Rectángulo_3287" data-name="Rectángulo 3287" width="82" height="44" transform="translate(140 5165)" fill="none"/>
  </g>
</svg>
