<svg xmlns="http://www.w3.org/2000/svg" width="82" height="128" viewBox="0 0 82 128">
  <g id="ons_silueta" transform="translate(-140 -4759)">
    <g id="Grupo_12296" data-name="Grupo 12296" transform="translate(811.739 572.532)">
      <path id="Trazado_11811" data-name="Trazado 11811" d="M376.691,40.043l.713,7.131-4.849,10.839-5.848,3.28-14.831,65.6-3.851,5.562-3.708-4.849-3.708,5.989-5.276-4.421,4.849-3.272-7.559-6.425,4.849-3.566-2.852-6.7-2.853-1,1-1.854,4.136,1.284,3.138-3.708,6.275,3.993,1.569-7.273-3.708-5.205,1.426-2.068-4.849-6.561-.286-3.565-3.28-3.851,5.847-5.99.428-4.278,2.853-3.28,4.563,1.426,4.706-5.562.286-6.56,3.28-5.562-.856-6.7,1.426-1.569,5.134,6.845,1-2.424,3.138,3.28,3-8.984,2.139-1.711,1.569-2,1.711-1.569v3.28Z" transform="translate(-991.743 4152.46)" fill="#9495a3"/>
      <path id="Trazado_11812" data-name="Trazado 11812" d="M362.756,217.032l-3.708,3.708.856,3.708-.856,4.564,1.854,4.279,4.421-5.562,1.426,1.711,2.709-6.275-1.711-4.136-2.424.856Z" transform="translate(-1002.48 4080.721)" fill="#9495a3"/>
    </g>
    <rect id="Rectángulo_3285" data-name="Rectángulo 3285" width="82" height="128" transform="translate(140 4759)" fill="none"/>
  </g>
</svg>
