<svg height="385.77399" viewBox="0 0 412.68505 385.77399" width="412.68506" xmlns="http://www.w3.org/2000/svg" xmlns:xlink="http://www.w3.org/1999/xlink"><clipPath id="a"><path d="m0 0h841.89v595.28h-841.89z"/></clipPath><clipPath id="b"><path d="m266 138h310v317h-310z"/></clipPath><clipPath id="c"><path d="m0 0h842v596h-842z"/></clipPath><clipPath id="d"><path d="m0 595.28h841.89v-595.28h-841.89z"/></clipPath><clipPath id="e"><path d="m0 0h842v596h-842z"/></clipPath><g clip-path="url(#a)" transform="matrix(1.3333333 0 0 -1.3333333 -355.11332 588.7983)"><g clip-path="url(#b)"><g clip-path="url(#c)"><path d="m266.335 272.563h12.283v46.032h-12.283z" fill="#4c4e52"/></g><g clip-path="url(#d)"><g clip-path="url(#e)"><g fill="#4c4e52"><path d="m308.5649 318.5957h-8.479c-.869 0-1.684-.299-2.445-.896-.761-.598-1.286-1.313-1.576-2.147v3.043h-12.229v-46.032h12.229v37.391h4.402v-37.391h12.284v41.901c0 1.051-.435 2.002-1.305 2.854-.869.851-1.83 1.277-2.881 1.277"/><path d="m333.819 280.879h-4.402v29.402h4.402zm12.283 33.586c0 1.051-.434 2.002-1.305 2.853-.869.852-1.83 1.278-2.88 1.278h-24.674v-46.033h24.674c1.05 0 2.011.426 2.88 1.278.871.851 1.305 1.802 1.305 2.853z"/><path d="m375.269 272.5635c1.05 0 2.011.426 2.88 1.277.871.852 1.305 1.802 1.305 2.854v41.901h-12.284v-37.717h-4.401v37.717h-12.175v-41.901c0-1.052.426-2.002 1.278-2.854.851-.851 1.801-1.277 2.852-1.277z"/><path d="m406.3022 276.6943v20.216c0 1.051-.437 2.002-1.305 2.855-.87.85-1.831 1.276-2.881 1.276h-6.413v9.24h12.066l-1.904 8.314h-18.206c-1.051 0-2.002-.425-2.853-1.277s-1.277-1.803-1.277-2.853v-17.555c0-1.05.426-2.009 1.277-2.879s1.802-1.304 2.853-1.304h6.414v-11.848h-11.577l1.956-8.316h17.664c1.05 0 2.011.426 2.881 1.277.868.852 1.305 1.802 1.305 2.854"/><path d="m409.9233 318.5957-2.01-8.314h7.445v-37.718h12.283v37.718h7.5l-2.01 8.314z"/><path d="m453.583 298.758h-4.674v11.523h4.674zm10.271-6.602c.581.741.87 1.531.87 2.365v19.944c0 1.051-.426 2.002-1.276 2.853-.853.852-1.802 1.278-2.855 1.278h-23.858v-46.033h12.174v17.828h.272l6.033-17.828h12.662l-6.086 18.043c.797.291 1.484.807 2.064 1.55"/><path d="m469.712 272.563h12.283v46.032h-12.283z"/><path d="m502.097 280.879h-4.402v29.402h4.402zm10.978-7.038c.869.851 1.305 1.802 1.305 2.853v37.771c0 1.051-.436 2.002-1.305 2.853-.869.852-1.83 1.278-2.879 1.278h-20.545c-1.05 0-2.002-.426-2.853-1.278-.852-.851-1.277-1.802-1.277-2.853v-37.771c0-1.051.425-2.002 1.277-2.853.851-.852 1.803-1.278 2.853-1.278h20.545c1.049 0 2.01.426 2.879 1.278"/><path d="m536.3193 301.041h-6.414v9.24h12.066l-1.902 8.315h-18.207c-1.053 0-2.004-.426-2.855-1.278-.85-.851-1.276-1.802-1.276-2.853v-17.555c0-1.05.426-2.009 1.276-2.879.851-.87 1.802-1.303 2.855-1.303h6.412v-11.849h-11.576l1.957-8.316h17.664c1.051 0 2.01.426 2.879 1.278.871.851 1.305 1.802 1.305 2.853v20.216c0 1.051-.434 2.002-1.305 2.856-.869.849-1.828 1.275-2.879 1.275"/><path d="m556.7158 284.1943 1.957 8.314 2.012-8.314zm8.262 34.401h-16.793l-1.903-8.314h4.131l-8.859-37.718h12.445c.508 2.174.762 3.278.762 3.316h7.826l.109-.109.706-3.207h12.447z"/><path d="m324.8794 255.6182h-1.025v-11.402h5.392v.978h-4.367z"/><path d="m335.0103 246.3945c0-.196-.037-.381-.111-.553-.075-.172-.174-.322-.301-.449-.129-.127-.277-.227-.449-.302-.174-.074-.358-.111-.553-.111h-.652c-.198 0-.381.037-.553.111-.172.075-.322.175-.449.302s-.229.277-.303.449-.111.357-.111.553v.342c0 .196.037.381.111.553.074.171.176.323.303.453s.277.231.449.306.355.112.553.112h2.066zm.279 5.423c-.218.218-.472.389-.763.513-.291.125-.602.187-.93.187h-.574c-.328 0-.639-.062-.93-.187-.291-.124-.545-.295-.764-.513-.216-.218-.388-.472-.511-.764-.125-.291-.188-.601-.188-.93v-.08l.979-.159v.295c0 .195.037.38.111.553.074.172.174.321.303.449.127.127.275.228.449.302.172.074.355.111.551.111h.574c.195 0 .379-.037.553-.111.172-.074.32-.175.449-.302.127-.128.226-.277.301-.449.074-.173.111-.358.111-.553v-1.257h-2.066c-.33 0-.639-.062-.932-.186-.291-.125-.545-.296-.762-.513-.219-.218-.388-.472-.513-.764s-.188-.601-.188-.93v-.079c0-.329.063-.639.188-.931.125-.291.294-.546.513-.763.217-.217.471-.388.762-.513.293-.124.602-.187.932-.187h.246c.398 0 .763.089 1.097.267.334.177.612.412.834.704l.541-.812h.327v5.908c0 .329-.063.639-.188.93-.123.292-.295.546-.512.764"/><path d="m342.4067 246.3945c0-.196-.037-.381-.111-.553-.076-.172-.176-.322-.303-.449s-.277-.227-.449-.302c-.172-.074-.358-.111-.553-.111h-.652c-.196 0-.381.037-.553.111-.172.075-.322.175-.449.302s-.229.277-.303.449-.111.357-.111.553v3.785c0 .195.037.38.111.553.074.172.176.321.303.449.127.127.277.228.449.302s.357.111.553.111h.652c.195 0 .381-.037.553-.111s.322-.175.449-.302c.127-.128.227-.277.303-.449.074-.173.111-.358.111-.553zm.277 5.423c-.216.218-.472.389-.763.513-.291.125-.602.187-.93.187h-.246c-.367 0-.705-.075-1.018-.223-.314-.148-.582-.355-.804-.621v3.945h-.977v-9.168c0-.329.061-.639.186-.931.125-.291.296-.546.513-.763s.471-.388.764-.513c.291-.124.602-.187.93-.187h.652c.328 0 .639.063.93.187.291.125.547.296.763.513.217.217.389.472.514.763.123.292.186.602.186.931v3.673c0 .329-.063.639-.186.93-.125.292-.297.546-.514.764"/><path d="m349.8013 246.3945c0-.196-.037-.381-.111-.553-.075-.172-.176-.322-.303-.449s-.277-.227-.449-.302c-.172-.074-.356-.111-.553-.111h-.652c-.196 0-.379.037-.553.111-.172.075-.322.175-.449.302s-.227.277-.301.449-.111.357-.111.553v3.785c0 .195.037.38.111.553.074.172.174.321.301.449.127.127.277.228.449.302.174.074.357.111.553.111h.652c.197 0 .381-.037.553-.111s.322-.175.449-.302c.127-.128.228-.277.303-.449.074-.173.111-.358.111-.553zm.277 5.423c-.216.218-.47.389-.763.513-.291.125-.602.187-.93.187h-.652c-.328 0-.639-.062-.93-.187-.291-.124-.547-.295-.764-.513s-.388-.472-.511-.764c-.125-.291-.188-.601-.188-.93v-3.673c0-.329.063-.639.188-.931.123-.291.294-.546.511-.763s.473-.388.764-.513c.291-.124.602-.187.93-.187h.652c.328 0 .639.063.93.187.293.125.547.296.763.513.219.217.389.472.514.763.125.292.188.602.188.931v3.673c0 .329-.063.639-.188.93-.125.292-.295.546-.514.764"/><path d="m354.4321 252.251c-.336-.178-.615-.418-.838-.72l-.533.827h-.326v-8.142h.978v5.797c0 .195.037.38.112.552.074.172.173.322.3.45.127.127.278.227.45.301.173.075.357.112.552.112h.979v1.09h-.572c-.399 0-.766-.089-1.102-.267"/><path d="m361.8716 246.3945c0-.196-.037-.381-.111-.553-.076-.172-.176-.322-.303-.449s-.277-.227-.449-.302c-.172-.074-.358-.111-.553-.111h-.652c-.196 0-.381.037-.553.111-.172.075-.322.175-.449.302s-.229.277-.303.449-.111.357-.111.553v.342c0 .196.037.381.111.553.074.171.176.323.303.453s.277.231.449.306.357.112.553.112h2.068zm.277 5.423c-.216.218-.472.389-.763.513-.291.125-.602.187-.93.187h-.572c-.33 0-.639-.062-.932-.187-.291-.124-.545-.295-.762-.513-.218-.218-.388-.472-.513-.764-.125-.291-.188-.601-.188-.93v-.08l.979-.159v.295c0 .195.037.38.111.553.074.172.176.321.303.449.127.127.277.228.449.302s.355.111.553.111h.572c.195 0 .381-.037.553-.111s.322-.175.449-.302c.127-.128.227-.277.303-.449.074-.173.111-.358.111-.553v-1.257h-2.068c-.328 0-.639-.062-.93-.186-.293-.125-.547-.296-.764-.513-.217-.218-.388-.472-.513-.764s-.186-.601-.186-.93v-.079c0-.329.061-.639.186-.931.125-.291.296-.546.513-.763s.471-.388.764-.513c.291-.124.602-.187.93-.187h.246c.398 0 .763.089 1.097.267.334.177.614.412.836.704l.539-.812h.327v5.908c0 .329-.063.639-.186.93-.125.292-.297.546-.514.764"/><path d="m366.5942 254.4736-.979-.159v-1.956h-1.462v-.931h1.462v-5.065c0-.297.057-.576.172-.835.114-.26.268-.488.461-.684.194-.196.422-.349.684-.461.262-.111.541-.167.838-.167h.89v.931h-.89c-.164 0-.317.03-.461.091-.143.061-.268.144-.373.251-.106.105-.19.228-.25.369-.063.14-.092.293-.092.458v5.112h2.066v.931h-2.066z"/><path d="m374.9185 246.3945c0-.196-.037-.381-.111-.553-.075-.172-.174-.322-.301-.449-.129-.127-.277-.227-.449-.302-.174-.074-.358-.111-.553-.111h-.652c-.198 0-.381.037-.553.111-.172.075-.322.175-.449.302s-.229.277-.303.449-.111.357-.111.553v3.785c0 .195.037.38.111.553.074.172.176.321.303.449.127.127.277.228.449.302s.355.111.553.111h.652c.195 0 .379-.037.553-.111.172-.074.32-.175.449-.302.127-.128.226-.277.301-.449.074-.173.111-.358.111-.553zm.279 5.423c-.218.218-.472.389-.763.513-.291.125-.602.187-.93.187h-.652c-.33 0-.639-.062-.932-.187-.291-.124-.545-.295-.762-.513-.219-.218-.388-.472-.513-.764-.125-.291-.188-.601-.188-.93v-3.673c0-.329.063-.639.188-.931.125-.291.294-.546.513-.763.217-.217.471-.388.762-.513.293-.124.602-.187.932-.187h.652c.328 0 .639.063.93.187.291.125.545.296.763.513.217.217.389.472.512.763.125.292.188.602.188.931v3.673c0 .329-.063.639-.188.93-.123.292-.295.546-.512.764"/><path d="m379.5513 252.251c-.338-.178-.617-.418-.84-.72l-.531.827h-.326v-8.142h.976v5.797c0 .195.037.38.112.552.074.172.175.322.302.45.127.127.278.227.45.301.171.075.357.112.552.112h.979v1.09h-.572c-.399 0-.766-.089-1.102-.267"/><path d="m382.776 254.314h1.137v1.304h-1.137z"/><path d="m382.854 244.216h.979v8.143h-.979z"/><path d="m390.5767 246.3945c0-.196-.037-.381-.111-.553-.076-.172-.176-.322-.303-.449s-.277-.227-.449-.302c-.172-.074-.358-.111-.553-.111h-.652c-.196 0-.381.037-.553.111-.172.075-.322.175-.449.302s-.229.277-.303.449-.111.357-.111.553v3.785c0 .195.037.38.111.553.074.172.176.321.303.449.127.127.277.228.449.302s.357.111.553.111h.652c.195 0 .381-.037.553-.111s.322-.175.449-.302c.127-.128.227-.277.303-.449.074-.173.111-.358.111-.553zm.277 5.423c-.216.218-.472.389-.763.513-.291.125-.602.187-.93.187h-.652c-.328 0-.639-.062-.93-.187-.293-.124-.547-.295-.764-.513s-.388-.472-.513-.764c-.125-.291-.186-.601-.186-.93v-3.673c0-.329.061-.639.186-.931.125-.291.296-.546.513-.763s.471-.388.764-.513c.291-.124.602-.187.93-.187h.652c.328 0 .639.063.93.187.291.125.547.296.763.513.217.217.389.472.514.763.123.292.186.602.186.931v3.673c0 .329-.063.639-.186.93-.125.292-.297.546-.514.764"/><path d="m399.1841 254.6406-1.26-.206v-1.935h-1.463v-1.213h1.463v-4.924c0-.314.061-.614.182-.892.119-.272.283-.518.49-.726.205-.208.449-.374.729-.493.281-.118.582-.177.896-.177h1.031v1.213h-1.031c-.146 0-.281.028-.406.08-.129.055-.236.127-.33.221-.094.093-.168.202-.221.324-.053.124-.08.26-.08.403v4.971h2.068v1.213h-2.068z"/><path d="m405.3013 251.4531h.652c.178 0 .34-.033.496-.1.157-.067.291-.159.405-.271.115-.116.207-.253.273-.405.067-.155.1-.322.1-.497v-1.068h-3.199v1.068c0 .175.033.342.099.496.069.158.158.291.272.405.115.114.25.206.406.272.156.067.318.1.496.1m2.445.465c-.228.229-.502.412-.806.542-.309.133-.641.199-.987.199h-.652c-.348 0-.68-.066-.986-.198-.307-.131-.578-.314-.809-.544-.228-.231-.412-.502-.541-.808-.133-.307-.199-.638-.199-.985v-3.674c0-.347.066-.678.199-.986.131-.307.313-.578.541-.808.229-.228.502-.411.809-.544.308-.131.64-.197.986-.197h.652c.344 0 .676.066.987.198.306.131.578.314.806.543.229.227.41.498.543.808.133.308.2.639.2.986v.446l-1.262.206v-.708c0-.175-.033-.343-.1-.496-.066-.155-.158-.291-.273-.405-.114-.113-.248-.205-.405-.272-.156-.067-.318-.1-.496-.1h-.652c-.178 0-.34.033-.496.1-.156.066-.291.158-.406.272-.112.111-.203.248-.272.405-.066.153-.099.321-.099.496v1.671h4.461v2.059c0 .347-.067.678-.2.985-.131.308-.314.58-.543.809"/><path d="m415.1411 251.918c-.229.229-.502.412-.807.542-.308.133-.64.199-.986.199h-.652c-.348 0-.68-.066-.987-.198-.306-.131-.578-.314-.808-.544-.229-.23-.412-.502-.541-.808-.133-.307-.199-.638-.199-.985v-3.674c0-.346.066-.678.199-.986.131-.307.312-.578.541-.808.228-.228.502-.411.808-.544.309-.131.641-.197.987-.197h.652c.344 0 .676.066.986.198.307.131.578.314.807.543.229.227.41.498.543.808.133.308.199.64.199.986v.447l-1.262.206v-.708c0-.176-.033-.344-.099-.497-.067-.155-.158-.291-.274-.405-.113-.113-.248-.205-.404-.272s-.318-.1-.496-.1h-.652c-.178 0-.34.033-.496.1-.157.066-.291.158-.407.272-.111.112-.203.248-.271.405-.067.153-.1.321-.1.497v3.785c0 .176.033.342.1.496.068.158.158.291.271.405.116.114.25.206.407.273.156.066.318.099.496.099h.652c.178 0 .34-.033.496-.099.156-.068.291-.16.404-.272.116-.116.207-.253.274-.405.066-.155.099-.321.099-.497v-.708l1.262.206v.446c0 .347-.066.678-.199.985-.131.308-.314.58-.543.809"/><path d="m422.5371 251.918c-.23.229-.504.412-.808.542-.309.133-.641.199-.986.199h-.247c-.419 0-.81-.095-1.167-.283-.293-.154-.547-.356-.76-.603l-.469.727h-.545v-8.426h1.262v6.106c0 .176.033.342.099.496.069.157.159.29.274.405.113.114.25.206.404.273.156.066.318.099.498.099h.651c.177 0 .339-.033.496-.099.154-.067.291-.159.406-.272.113-.115.205-.252.271-.405.067-.155.1-.321.1-.497v-6.106h1.261v6.05c0 .347-.066.678-.198.985-.13.306-.312.578-.542.809"/><path d="m428.1367 245.1211h-.65c-.18 0-.342.033-.497.1-.156.066-.292.158-.406.272-.113.112-.205.249-.273.405-.066.153-.1.321-.1.496v3.786c0 .175.034.342.1.496.068.157.158.29.273.405.114.114.25.206.406.272.155.067.317.1.497.1h.65c.178 0 .341-.033.497-.1.154-.066.29-.158.405-.271.114-.115.205-.252.272-.405.066-.155.099-.322.099-.497v-3.786c0-.175-.033-.343-.099-.496-.067-.156-.158-.293-.272-.405-.115-.114-.251-.206-.405-.272-.156-.067-.319-.1-.497-.1m1.795 6.797c-.231.229-.503.412-.809.542-.307.133-.639.199-.986.199h-.65c-.348 0-.68-.066-.989-.198-.304-.131-.576-.314-.806-.543-.229-.229-.411-.501-.543-.809-.132-.307-.2-.638-.2-.985v-3.674c0-.347.068-.678.2-.986.133-.31.315-.581.543-.808.228-.228.5-.412.807-.544.309-.131.642-.197.988-.197h.65c.346 0 .678.066.987.198.306.131.577.314.808.543.228.23.411.501.542.808.132.308.198.639.198.986v3.674c0 .347-.066.678-.198.985-.13.306-.312.577-.542.809"/><path d="m432.672 244.074h1.26v11.686h-1.26z"/><path d="m440.7949 255.7598h-2.078l-1.485-2.239h1.05z"/><path d="m438.959 245.1211h-.65c-.18 0-.342.033-.497.1-.156.066-.292.158-.406.272-.113.112-.205.249-.273.405-.066.153-.1.321-.1.496v3.786c0 .175.034.342.1.496.068.157.158.29.273.405.114.114.25.206.406.272.155.067.317.1.497.1h.65c.178 0 .341-.033.497-.1.154-.066.29-.158.405-.271.114-.115.205-.252.272-.405.066-.155.099-.322.099-.497v-3.786c0-.175-.033-.343-.099-.496-.067-.156-.158-.293-.272-.405-.115-.114-.251-.206-.405-.272-.156-.067-.319-.1-.497-.1m1.795 6.797c-.231.229-.503.412-.809.542-.307.133-.639.199-.986.199h-.65c-.348 0-.68-.066-.989-.198-.304-.131-.576-.314-.806-.543-.229-.229-.411-.501-.543-.809-.132-.307-.2-.638-.2-.985v-3.674c0-.347.068-.678.2-.986.133-.31.315-.581.543-.808.228-.228.5-.412.807-.544.309-.131.642-.197.988-.197h.65c.346 0 .678.066.987.198.306.131.577.314.808.543.228.23.411.501.542.808.132.308.198.639.198.986v3.674c0 .347-.066.678-.198.985-.13.306-.312.577-.542.809"/><path d="m447.4395 252.5-1.658-2.976-1.657 2.976h-1.384l2.362-4.213-2.362-4.213h1.384l1.657 2.976 1.658-2.976h1.383l-2.354 4.213 2.354 4.213z"/><path d="m450.395 244.074h1.262v8.426h-1.262z"/><path d="m450.314 254.173h1.422v1.587h-1.422z"/><path d="m458.6367 251.918c-.23.229-.503.412-.809.542-.307.133-.639.199-.986.199h-.65c-.348 0-.68-.066-.989-.198-.304-.131-.576-.314-.806-.543-.229-.229-.411-.501-.543-.809-.132-.307-.199-.638-.199-.985v-3.674c0-.346.067-.678.199-.986.133-.31.315-.581.543-.808.228-.228.5-.412.807-.544.309-.131.642-.197.988-.197h.65c.346 0 .678.066.987.198.306.131.578.314.808.543.229.23.411.501.542.808.132.308.198.64.198.986v.447l-1.261.206v-.708c0-.176-.034-.344-.1-.497-.066-.156-.158-.292-.272-.405-.115-.114-.251-.206-.405-.272-.156-.067-.319-.1-.497-.1h-.65c-.18 0-.342.033-.497.1-.156.066-.292.158-.406.272-.113.113-.205.249-.273.405-.066.153-.1.321-.1.497v3.785c0 .176.034.342.1.496.068.157.158.29.273.405.114.114.25.206.406.273.155.066.317.099.497.099h.65c.178 0 .341-.033.497-.099.154-.067.29-.159.405-.272.114-.115.206-.252.272-.405.066-.155.1-.321.1-.497v-.708l1.261.206v.446c0 .347-.066.678-.198.985-.13.306-.312.578-.542.809"/><path d="m464.2363 245.1211h-.65c-.18 0-.342.033-.497.1-.156.066-.292.158-.406.272-.113.112-.205.249-.273.405-.066.153-.1.321-.1.496v3.786c0 .175.034.342.1.496.068.157.158.29.273.405.114.114.25.206.406.272.155.067.317.1.497.1h.65c.178 0 .341-.033.497-.1.154-.066.29-.158.405-.271.114-.115.205-.252.272-.405.066-.155.099-.322.099-.497v-3.786c0-.175-.033-.343-.099-.496-.067-.156-.158-.293-.272-.405-.115-.114-.251-.206-.405-.272-.156-.067-.319-.1-.497-.1m1.795 6.797c-.231.229-.503.412-.809.542-.307.133-.639.199-.986.199h-.65c-.348 0-.68-.066-.989-.198-.304-.131-.576-.314-.806-.543-.229-.229-.411-.501-.543-.809-.132-.307-.2-.638-.2-.985v-3.674c0-.347.068-.678.2-.986.133-.31.315-.581.543-.808.228-.228.5-.412.807-.544.309-.131.642-.197.988-.197h.65c.346 0 .678.066.987.198.306.131.577.314.808.543.228.23.411.501.542.808.132.308.198.639.198.986v3.674c0 .347-.066.678-.198.985-.13.306-.312.577-.542.809"/><path d="m477.0703 251.8174c-.217.218-.471.389-.764.513-.291.125-.601.187-.929.187h-.653c-.328 0-.638-.062-.929-.187-.291-.124-.547-.295-.764-.513s-.389-.472-.512-.764c-.125-.291-.187-.601-.187-.929v-3.674c0-.329.062-.639.187-.931.123-.291.295-.546.512-.763s.473-.388.764-.513c.291-.124.601-.187.929-.187h.653c.328 0 .638.063.929.187.293.125.547.296.764.513.219.217.389.472.514.763.125.292.187.602.187.931v.326l-.978.159v-.541c0-.196-.037-.381-.112-.553-.074-.171-.175-.322-.302-.449s-.278-.227-.45-.302c-.171-.074-.355-.111-.552-.111h-.653c-.195 0-.379.037-.552.111-.172.075-.323.175-.45.302s-.226.278-.3.449c-.075.172-.112.357-.112.553v3.785c0 .196.037.38.112.553.074.172.173.321.3.449.127.127.278.228.45.302.173.074.357.111.552.111h.653c.197 0 .381-.037.552-.111.172-.074.323-.175.45-.302.127-.128.228-.277.302-.449.075-.173.112-.357.112-.553v-.541l.978.159v.327c0 .328-.062.638-.187.929-.125.292-.295.546-.514.764"/><path d="m479.973 254.314h1.139v1.304h-1.139z"/><path d="m480.053 244.216h.979v8.143h-.979z"/><path d="m487.7734 246.3945c0-.196-.037-.381-.111-.553-.075-.172-.176-.322-.303-.449s-.277-.227-.449-.302c-.172-.074-.356-.111-.553-.111h-.65c-.198 0-.381.037-.553.111-.174.075-.322.175-.449.302-.129.127-.229.277-.303.449s-.111.357-.111.553v3.785c0 .195.037.38.111.553.074.172.174.321.303.449.127.127.275.228.449.302.172.074.355.111.553.111h.65c.197 0 .381-.037.553-.111s.322-.175.449-.302c.127-.128.228-.277.303-.449.074-.173.111-.358.111-.553zm0 5.279c-.223.266-.49.473-.803.621-.312.148-.652.223-1.017.223h-.246c-.33 0-.641-.062-.932-.187-.291-.124-.545-.295-.764-.513-.217-.218-.386-.472-.511-.764-.125-.291-.188-.601-.188-.93v-3.673c0-.329.063-.639.188-.931.125-.291.294-.546.511-.763.219-.217.473-.388.764-.513.291-.124.602-.187.932-.187h.246c.396 0 .763.089 1.097.267.334.177.612.417.834.719l.541-.827h.327v11.403h-.979z"/><path d="m495.168 246.3945c0-.196-.037-.381-.111-.553-.075-.172-.176-.322-.303-.449s-.277-.227-.449-.302c-.172-.074-.356-.111-.553-.111h-.65c-.198 0-.381.037-.553.111-.174.075-.322.175-.449.302-.129.127-.229.277-.303.449s-.111.357-.111.553v.342c0 .196.037.381.111.553.074.171.174.323.303.453.127.13.275.231.449.306.172.075.355.112.553.112h2.066zm.279 5.423c-.218.218-.472.389-.763.513-.293.125-.602.187-.932.187h-.572c-.328 0-.639-.062-.93-.187-.291-.124-.547-.295-.764-.513-.216-.218-.388-.472-.511-.764-.125-.291-.188-.601-.188-.93v-.08l.979-.159v.295c0 .195.037.38.111.553.074.172.174.321.301.449.127.127.277.228.449.302s.357.111.553.111h.572c.197 0 .381-.037.553-.111s.322-.175.449-.302c.127-.128.228-.277.303-.449.074-.173.111-.358.111-.553v-1.257h-2.066c-.33 0-.641-.062-.932-.186-.291-.125-.545-.296-.764-.513-.217-.218-.386-.472-.511-.764s-.188-.601-.188-.93v-.079c0-.329.063-.639.188-.931.125-.291.294-.546.511-.763.219-.217.473-.388.764-.513.291-.124.602-.187.932-.187h.246c.396 0 .763.089 1.097.267.334.177.612.412.834.704l.541-.812h.327v5.908c0 .329-.063.639-.188.93-.125.292-.295.546-.512.764"/><path d="m502.5625 246.3945c0-.196-.037-.381-.111-.553-.075-.172-.174-.322-.301-.449-.129-.127-.277-.227-.449-.302-.174-.074-.358-.111-.553-.111h-.652c-.198 0-.381.037-.553.111-.172.075-.322.175-.449.302s-.229.277-.303.449-.111.357-.111.553v3.785c0 .195.037.38.111.553.074.172.176.321.303.449.127.127.277.228.449.302s.355.111.553.111h.652c.195 0 .379-.037.553-.111.172-.074.32-.175.449-.302.127-.128.226-.277.301-.449.074-.173.111-.358.111-.553zm0 5.279c-.223.266-.49.473-.803.621-.312.148-.652.223-1.017.223h-.246c-.33 0-.639-.062-.932-.187-.291-.124-.545-.295-.762-.513-.219-.218-.388-.472-.513-.764-.125-.291-.188-.601-.188-.93v-3.673c0-.329.063-.639.188-.931.125-.291.294-.546.513-.763.217-.217.471-.388.762-.513.293-.124.602-.187.932-.187h.246c.398 0 .763.089 1.097.267.334.177.612.417.834.719l.541-.827h.327v11.403h-.979z"/><path d="m507.8105 253.6621 2.195 1.956h-1.631l-1.294-1.956z"/><path d="m509.959 246.3945c0-.196-.037-.381-.111-.553-.076-.172-.176-.322-.303-.449s-.277-.227-.449-.302c-.172-.074-.358-.111-.553-.111h-.652c-.196 0-.381.037-.553.111-.172.075-.322.175-.449.302s-.229.277-.303.449-.111.357-.111.553v.342c0 .196.037.381.111.553.074.171.176.323.303.453s.277.231.449.306.357.112.553.112h2.068zm.277 5.423c-.216.218-.472.389-.763.513-.291.125-.602.187-.93.187h-.572c-.33 0-.639-.062-.932-.187-.291-.124-.545-.295-.762-.513-.218-.218-.388-.472-.513-.764-.125-.291-.188-.601-.188-.93v-.08l.979-.159v.295c0 .195.037.38.111.553.074.172.176.321.303.449.127.127.277.228.449.302s.355.111.553.111h.572c.195 0 .381-.037.553-.111s.322-.175.449-.302c.127-.128.227-.277.303-.449.074-.173.111-.358.111-.553v-1.257h-2.068c-.328 0-.639-.062-.93-.186-.293-.125-.547-.296-.764-.513-.217-.218-.388-.472-.513-.764s-.186-.601-.186-.93v-.079c0-.329.061-.639.186-.931.125-.291.296-.546.513-.763s.471-.388.764-.513c.291-.124.602-.187.93-.187h.246c.398 0 .763.089 1.097.267.334.177.614.412.836.704l.539-.812h.327v5.908c0 .329-.063.639-.186.93-.125.292-.297.546-.514.764"/><path d="m517.6309 251.8174c-.217.218-.473.389-.764.513-.291.125-.601.187-.929.187h-.246c-.399 0-.766-.089-1.102-.266-.338-.178-.617-.418-.84-.72l-.531.827h-.326v-8.143h.976v5.964c0 .196.037.38.112.553.074.172.175.321.302.449.127.127.278.228.45.302.171.074.357.111.552.111h.653c.195 0 .381-.037.552-.111.172-.074.323-.175.45-.302.127-.128.226-.277.302-.449.075-.173.112-.357.112-.553v-5.964h.976v5.909c0 .328-.062.638-.185.929-.125.292-.297.546-.514.764"/><path d="m421.0679 349.3071 1.808-7.478h-3.568zm-4.205-17.939c.457 1.955.684 2.949.684 2.981h7.04l.098-.098.634-2.883h11.196l-9.778 41.404h-15.105l-1.71-7.479h3.716l-7.968-33.925z"/></g><path d="m402.4985 345.1719.445 1.894h-21.611l-4.601-4.602h-10.012c-.549 1.358-1.807 2.345-3.438 2.345-1.983 0-3.519-1.62-3.519-3.518 0-1.982 1.536-3.613 3.519-3.613 1.815 0 3.253 1.174 3.526 2.796h10.735l4.602 4.698z" fill="#b28c50"/><path d="m365.1851 360.6929h10.19l4.61-4.688h25.058l.465 1.98h-24.615l-4.697 4.612h-10.834c-.364 1.622-1.809 2.883-3.526 2.883-1.976 0-3.607-1.622-3.607-3.605 0-1.993 1.631-3.526 3.607-3.526 1.534 0 2.89.9 3.349 2.344" fill="#b28c50"/><path d="m370.8618 355.1934c-1.975 0-3.605-1.625-3.605-3.617 0-1.98 1.63-3.612 3.605-3.612 1.631 0 3.076 1.093 3.438 2.627h29.472l.466 1.983h-29.938c-.362 1.533-1.807 2.619-3.438 2.619" fill="#b28c50"/><path d="m480.3486 365.4795c-1.719 0-3.163-1.261-3.527-2.883h-10.832l-4.7-4.611h-24.614l.465-1.981h25.059l4.608 4.688h10.191c.459-1.444 1.816-2.344 3.35-2.344 1.976 0 3.606 1.534 3.606 3.526 0 1.983-1.63 3.605-3.606 3.605" fill="#b28c50"/><path d="m471.3223 347.9648c1.975 0 3.605 1.631 3.605 3.612 0 1.992-1.63 3.617-3.605 3.617-1.631 0-3.075-1.086-3.438-2.619h-29.938l.466-1.984h29.472c.363-1.533 1.807-2.626 3.438-2.626" fill="#b28c50"/><path d="m478.9033 344.8086c-1.632 0-2.89-.986-3.438-2.345h-10.013l-4.6 4.602h-21.612l.445-1.894h20.355l4.601-4.698h10.736c.272-1.622 1.711-2.796 3.526-2.796 1.982 0 3.519 1.631 3.519 3.613 0 1.898-1.537 3.518-3.519 3.518" fill="#b28c50"/><path d="m431.0293 205.2139c-.361 2.509-2.956 3.849-5.045 3.094-.105-.036-.178-.031-.264.053-1.071 1.048-2.145 2.093-3.218 3.139.024.033.045.064.076.098.997 1.022 2.992 3.048 3.994 4.068.101.102.225.193.351.261.777.421 1.557.838 2.341 1.249.146.075.238.174.311.321.43.863.868 1.723 1.304 2.582 0 .015 0 .029-.002.042-.448.436-.897.872-1.345 1.311h-.041c-.866-.467-1.735-.934-2.598-1.406-.093-.05-.181-.139-.229-.233-.416-.811-.819-1.629-1.233-2.439-.06-.118-.138-.232-.23-.326-1.004-1.036-3.012-3.07-4.016-4.103-.028-.028-.045-.049-.068-.073-1.068 1.042-2.136 2.085-3.206 3.127-.078.075-.099.138-.066.242.178.53.22 1.067.147 1.626-.21 1.623-1.368 2.919-2.97 3.287-.167.04-.337.07-.506.107-.228-.004-.456-.006-.685-.009-.454-.093-.913-.169-1.375-.437.088-.062.156-.098.207-.149.771-.747 1.54-1.496 2.307-2.249.086-.084.168-.172.24-.27.398-.529.311-1.299-.195-1.724-.54-.458-1.249-.415-1.795.113-.792.765-1.578 1.535-2.366 2.303-.052.049-.104.096-.158.146-.343-.615-.465-1.608-.296-2.383.515-2.373 2.988-3.566 4.995-2.856.129.046.203.02.298-.072.83-.81 1.661-1.62 2.492-2.43-1.913-1.966-4.921-5.07-6.811-6.993-.429-.438-.811-.888-.89-1.525.002-.134.003-.269.004-.403.082-.358.193-.7.437-.99.329-.388.737-.625 1.244-.691.026-.003.049-.018.072-.028.134.002.269.003.404.005.634.096 1.074.49 1.501.931 1.876 1.939 4.882 5.028 6.804 6.997.837-.815 1.672-1.631 2.509-2.447.096-.094.117-.17.074-.296-.211-.618-.225-1.251-.084-1.884.412-1.836 1.841-3.024 3.716-3.085.606-.02 1.18.12 1.77.42-.08.061-.144.098-.195.148-.771.749-1.539 1.499-2.307 2.249-.091.089-.178.183-.254.284-.4.532-.309 1.295.198 1.723.541.453 1.254.412 1.798-.115.79-.766 1.577-1.536 2.365-2.303.052-.05.104-.097.166-.153.028.064.054.104.065.15.104.386.205.772.307 1.16-.002.241-.006.482-.009.725-.014.036-.032.073-.04.111" fill="#b28c50"/><path d="m381.908 210.102h23.921v1.822h-23.921z" fill="#b28c50"/><path d="m435.573 210.102h23.922v1.822h-23.922z" fill="#b28c50"/><path d="m0 0v-24.288c0-4.698 3.329-10.465 7.398-12.815l111.222-64.214c4.069-2.35 10.728-2.35 14.797 0l111.223 64.214c4.068 2.35 7.399 8.117 7.399 12.815v24.288" fill="none" stroke="#b28c50" stroke-miterlimit="10" stroke-width="2.842" transform="translate(295.0728 256.8301)"/><path d="m0 0v29.023c0 4.699-3.33 10.466-7.398 12.814l-111.225 64.217c-4.068 2.35-10.728 2.35-14.797 0l-111.222-64.216c-4.069-2.349-7.399-8.116-7.399-12.815v-29.023" fill="none" stroke="#b28c50" stroke-miterlimit="10" stroke-width="2.842" transform="translate(547.1123 332.2998)"/></g></g></g></g></svg>
