<svg width="551" height="159" viewBox="0 0 551 159" fill="none" xmlns="http://www.w3.org/2000/svg">
<path d="M207.128 53.7868L240.539 44.6309V11.8755L207.128 21.0075V53.7868Z" fill="#2A1243"/>
<path d="M207.128 154.39H240.539V54.9197L207.128 64.0756V154.39Z" fill="#2A1243"/>
<path d="M283.977 0L250.846 9.06019V116.06C250.846 131.205 253.083 141.462 260.089 148.464C266.608 154.972 275.101 158.194 289.402 158.194C300.682 158.194 314.176 152.532 320.288 147.603V121.834C312.794 124.849 305.883 128.701 299.085 128.765C293.995 128.813 290.512 127.927 287.348 124.769C284.744 122.161 283.969 119.17 283.969 111.809V64.7612L320.615 53.3562V26.6063L283.969 36.145V0H283.977Z" fill="#2A1243"/>
<path d="M159.761 59.0109L158.603 59.3299V34.2629L126.15 43.1556V154.39H159.266V108.371C159.266 74.0129 171.425 63.5968 188.674 58.8753C191.334 58.1496 194.522 57.2723 197.19 56.5385V23.6475C192.005 25.2107 187.859 26.6383 183.353 29.2782C172.64 35.5469 163.196 43.5942 159.761 59.0189V59.0109Z" fill="#2A1243"/>
<path d="M84.39 67.8238C96.8132 61.9857 103.053 51.2347 103.788 37.7401C104.962 15.9989 86.2914 2.97487 51.834 3.86812C45.3308 4.03561 37.6451 4.63377 30.2072 5.36752C14.5404 6.9068 0 9.04423 0 9.04423V154.605C0 154.605 21.499 157.668 60.2786 153.688C98.7306 149.74 119.798 128.972 117.018 99.9013C114.989 78.7263 101.231 71.979 84.39 67.8238V67.8238ZM32.3962 30.8653C32.3962 30.8653 36.9021 29.8524 50.2202 27.9781C64.4649 25.9763 71.2957 32.1972 71.4874 40.9304C71.7671 53.3482 65.1999 57.0249 59.1761 59.6489C47.6636 64.6655 32.3882 67.9275 32.3882 67.9275V30.8653H32.3962ZM57.0989 126.34C41.9833 129.275 32.3962 128.119 32.3962 128.119V95.1399C32.3962 95.1399 38.9953 91.6387 57.0429 87.4436C70.9921 84.2055 82.5045 89.5252 82.6803 100.651C82.904 114.489 72.0467 123.437 57.0909 126.34" fill="#2A1243"/>
<path d="M384.544 33.0905C351.637 32.0696 321.254 56.1477 324.01 101.329C325.672 128.557 344.143 155.642 381.66 158.075C414.456 160.204 437.561 136.9 439.27 109.863L410.725 117.408C407.721 124.051 403.726 130.527 389.945 132.035C373.679 133.813 361.344 124.657 358.484 113.388L438.655 92.0376C437.76 62.0815 421.015 34.215 384.56 33.0825L384.544 33.0905ZM355.256 87.332C355.12 73.6939 364.883 60.8852 380.59 59.2342C394.89 57.7348 402.408 65.2558 404.501 74.0209L355.264 87.332H355.256Z" fill="#2A1243"/>
<path fill-rule="evenodd" clip-rule="evenodd" d="M551 60.2471L550.848 59.6888L548.02 49.1611L545.2 38.6334L545.048 38.0752L510.838 49.3525L522.143 15.2093L521.584 15.0578L511.038 12.2345L500.492 9.41114L499.933 9.26758L492.615 44.4795L468.639 17.6339L468.232 18.0406L460.514 25.753L452.789 33.4573L452.381 33.8641L479.273 57.7986L444 65.1042L444.144 65.6625L446.972 76.1901L449.801 86.7178L449.944 87.2761L484.154 75.9908L472.858 110.142L473.417 110.293L483.963 113.109L494.508 115.932L495.06 116.084L502.378 80.8718L526.353 107.709L526.761 107.303L534.486 99.5983L542.204 91.886L542.611 91.4792L515.728 67.5527L551 60.2471Z" fill="#2A1243"/>
</svg>
