<?xml version="1.0" encoding="UTF-8"?>
<!-- Generator: Adobe Illustrator 24.1.2, SVG Export Plug-In . SVG Version: 6.00 Build 0)  -->
<svg version="1.1" id="Capa_1" xmlns="http://www.w3.org/2000/svg" xmlns:xlink="http://www.w3.org/1999/xlink" x="0px" y="0px" viewBox="0 0 5952.76 1700.79" style="enable-background:new 0 0 5952.76 1700.79;" xml:space="preserve">
<style type="text/css">
	.st0{fill:#007BC4;}
</style>
<path class="st0" d="M0,0v1700.79h1190.55V0H0z M552.76,141.74h28.35V113.4h28.35v28.35h28.35v28.35h-28.35v28.35H581.1v-28.35  h-28.35V141.74z M340.16,1360.63h-56.69v56.69h-56.69v-56.69h-56.69v-56.69h56.69v-56.69h56.69v56.69h56.69V1360.63z   M340.16,1020.47h-56.69v56.69h-56.69v-56.69h-56.69v-56.69h56.69v-56.69h56.69v56.69h56.69V1020.47z M340.16,680.31h-56.69v56.69  h-56.69v-56.69h-56.69v-56.69h56.69v-56.69h56.69v56.69h56.69V680.31z M624.79,1273.4c-0.77,10.08-1.16,20.26-1.16,30.53  c0,84.32,26.3,162.49,71.14,226.77H495.79c44.84-64.28,71.14-142.45,71.14-226.77c0-10.27-0.4-20.46-1.16-30.53  c-95.59-14.25-168.91-96.68-168.91-196.24H793.7C793.7,1176.72,720.38,1259.15,624.79,1273.4z M680.32,623.62v56.69h-56.69v56.69  h-56.69v-56.69h-56.69v-56.69h56.69v-56.69h56.69v56.69H680.32z M595.28,793.7c62.62,0,113.39,50.76,113.39,113.39  c0,62.62-50.76,113.39-113.39,113.39c-62.62,0-113.39-50.76-113.39-113.39C481.89,844.47,532.65,793.7,595.28,793.7z M793.7,496.06  H396.85v-42.52H793.7V496.06z M833.78,381.32l-20.84,29.71h-52.96l37.92-54.68c6.41-9.34,8.69-21.62,8.69-29.28  c0-13.35-4.32-24.57-12.85-33.36c-10.19-10.53-22.75-15.87-37.36-15.87c-6.27,0-10.74,0.59-10.74,0.59l-0.13-0.21  c3.17,11.29,4.86,22.18,4.86,32.4c0,18.38-1.99,33.99-11.72,50.47l-29.51,49.96h-51.59l42-71.28c3.92-6.56,6.97-19.36,6.97-29.14  c0-14.6-4.55-26.38-13.91-35.99c-10.93-11.3-23.51-17.03-37.4-17.03c-17.55,0-30.21,5.04-38.68,15.4v138.05h-42.51V272.98  c-8.46-10.36-21.13-15.4-38.68-15.4c-13.9,0-26.47,5.73-37.4,17.03c-9.36,9.61-13.91,21.39-13.91,35.99  c0,9.79,3.06,22.58,6.97,29.14l42,71.28h-51.59l-29.51-49.96c-9.73-16.47-11.72-32.09-11.72-50.47c0-10.22,1.69-21.1,4.86-32.4  l-0.13,0.21c0,0-4.47-0.59-10.74-0.59c-14.6,0-27.17,5.34-37.36,15.87c-8.53,8.79-12.85,20.01-12.85,33.36  c0,7.67,2.28,19.94,8.69,29.28l37.92,54.68h-52.96l-20.83-29.71c-11.34-16.37-16.62-33.61-16.62-54.25  c0-26.58,9.34-48.73,27.64-65.68c18.36-18.94,40.7-28.54,66.38-28.54c10.96,0,22.78,2.23,35.16,6.41c0.95-1.06,1.9-2.12,3-3.07  c16.81-15.65,38-23.58,63.01-23.58c21.66,0,41.82,6.65,59.93,19.78c18.12-13.13,38.27-19.78,59.93-19.78  c25.01,0,46.2,7.93,63.01,23.58c1.09,0.95,2.05,2.01,3,3.07c12.38-4.18,24.2-6.41,35.16-6.41c25.68,0,48.02,9.6,66.38,28.54  c18.3,16.95,27.64,39.1,27.64,65.68C850.39,347.7,845.11,364.95,833.78,381.32z M1020.47,1360.63h-56.69v56.69h-56.69v-56.69h-56.69  v-56.69h56.69v-56.69h56.69v56.69h56.69V1360.63z M1020.47,1020.47h-56.69v56.69h-56.69v-56.69h-56.69v-56.69h56.69v-56.69h56.69  v56.69h56.69V1020.47z M1020.47,680.31h-56.69v56.69h-56.69v-56.69h-56.69v-56.69h56.69v-56.69h56.69v56.69h56.69V680.31z   M1980.26,1242.83c0,184.12-106.03,287.68-262.2,287.68h-187.41V963.36h179.19C1872.58,963.36,1980.26,1064.46,1980.26,1242.83z   M1901.35,1242.83c0-140.56-81.37-210.42-193.16-210.42h-103.57v429.06h108.5C1823.26,1461.46,1901.35,1389.13,1901.35,1242.83z   M2114.26,963.36h348.51l-23.02,69.05h-251.52v167.68h225.22v69.05h-225.22v192.33h254.81l23.01,69.05h-351.8V963.36z   M2797.19,1244.47c0-176.72,110.14-294.26,278.65-294.26c63.29,0,138.91,24.66,194.81,57.54v85.48  c-69.87-43.56-145.49-72.33-194.81-72.33c-117.54,0-199.74,89.59-199.74,223.57c0,142.2,71.51,230.15,177.54,230.15  c98.64,0,170.15-62.47,179.19-168.5h-158.64l-22.19-69.04h253.99c3.29,15.62,4.93,32.88,4.93,51.78  c0,150.42-99.46,256.45-257.27,256.45C2895.82,1545.3,2797.19,1429.41,2797.19,1244.47z M3617.52,963.36h47.68l238.37,567.15h-81.37  l-55.07-138.91h-253.99l-55.89,138.91h-78.09L3617.52,963.36z M3739.99,1324.2l-99.46-249.05l-100.28,249.05H3739.99z   M4006.33,963.36h73.97v498.11h263.03l23.02,69.05h-360.02V963.36z M4472.39,963.36h73.97v567.15h-73.97V963.36z M4680.35,1242.83  c0-175.9,96.17-292.62,249.87-292.62c66.58,0,137.27,24.66,189.05,63.29v86.31c-62.47-46.85-131.51-78.91-189.05-78.91  c-98.64,0-170.96,83.84-170.96,221.93c0,143.02,69.04,230.14,170.96,230.14c57.54,0,126.58-32.06,189.05-78.91v86.31  c-51.79,38.63-122.47,63.29-189.05,63.29C4773.23,1543.66,4680.35,1423.65,4680.35,1242.83z M5251.63,963.36h73.97v567.15h-73.97  V963.36z M5666.72,963.36h47.67l238.37,567.15h-81.37l-55.07-138.91h-253.99l-55.89,138.91h-78.09L5666.72,963.36z M5789.19,1324.2  l-99.46-249.05l-100.28,249.05H5789.19z M1722.34,445.21l-181.65-275.36h87.13l141.38,214.53l139.73-214.53h83.84l-181.65,277  l191.52,290.16h-87.13l-151.24-229.33l-149.6,229.33h-83.84L1722.34,445.21z M2092.24,547.14V169.86h73.98v373.99  c0,87.95,53.43,137.27,135.62,137.27s135.62-49.32,135.62-137.27V169.86h73.97v377.28c0,127.4-81.37,204.67-209.6,204.67  S2092.24,674.54,2092.24,547.14z M2673.39,169.86h62.47l290.15,404.4v-404.4h73.97v567.15h-41.92l-310.7-433.17v433.17h-73.97  V169.86z M3429.62,238.9h-205.49l-23.02-69.04h530.99l-23.02,69.04h-205.49v498.11h-73.97V238.9z M3943.37,169.86h47.68  l238.37,567.15h-81.37l-55.07-138.91h-253.99l-55.89,138.91H3705L3943.37,169.86z M4065.84,530.7l-99.46-249.05L3866.1,530.7  H4065.84z"/>
</svg>
