<svg xmlns="http://www.w3.org/2000/svg" width="545.291" height="646.206" viewBox="0 0 545.291 646.206">
  <g id="Grupo_12255" data-name="Grupo 12255" transform="translate(0 -0.001)">
    <g id="Grupo_12254" data-name="Grupo 12254" transform="translate(0 0.001)">
      <g id="Grupo_12253" data-name="Grupo 12253" transform="translate(0 0)">
        <path id="Trazado_11833" data-name="Trazado 11833" d="M272.636,143.547a64.437,64.437,0,0,0,37.275-117A13.973,13.973,0,0,0,293.733,49.33a36.49,36.49,0,0,1-21.1,66.267C122.3,115.6,0,237.9,0,388.237a13.973,13.973,0,0,0,27.946,0c0-134.924,109.771-244.69,244.69-244.69" transform="translate(0 89.424)" fill="#f2f5f7"/>
        <path id="Trazado_11834" data-name="Trazado 11834" d="M367.094,32.656a13.975,13.975,0,0,0-13.973,13.973c0,134.919-109.771,244.69-244.7,244.69A64.44,64.44,0,0,0,71.155,408.327a13.973,13.973,0,0,0,16.179-22.786,36.494,36.494,0,0,1,21.087-66.276c150.341,0,272.655-122.3,272.655-272.636a13.983,13.983,0,0,0-13.983-13.973" transform="translate(164.215 121.911)" fill="#f2f5f7"/>
        <path id="Trazado_11835" data-name="Trazado 11835" d="M190.532,618.256c-77.518,0-140.59-63.062-140.59-140.59s63.072-140.595,140.59-140.595c92.935,0,168.54-75.6,168.54-168.531S283.467,0,190.532,0a13.97,13.97,0,1,0,0,27.941c77.523,0,140.59,63.072,140.59,140.6s-63.067,140.585-140.59,140.585c-92.935,0-168.54,75.61-168.54,168.54s75.606,168.54,168.54,168.54a13.975,13.975,0,0,0,0-27.95" transform="translate(82.103 -0.001)" fill="#f2f5f7"/>
        <path id="Trazado_11836" data-name="Trazado 11836" d="M211.482,244.2l24.168-1.316c48.493-.9,92.9-35.76,106.817-81.934C367.148,83.725,301.624,2.8,220.925,12.124c-55.863,4.828-102.226,57.969-96.409,113.9.407,5.443,8.724,5.552,9.164,0,5.14-63.924,73.253-109.1,132.879-83.013,57.643,24.074,72.69,103.551,26.7,146.18a90.386,90.386,0,0,1-53.189,24.391c-3.233.114-27.794,1.411-31.619,1.6C97.66,225.735,9.241,323.753,11.016,435.157c.521,18.342,27.3,18.209,27.946.2A201.813,201.813,0,0,1,62.141,345.1C91.89,289.848,148.978,250.836,211.482,244.2" transform="translate(41.029 42.508)" fill="#f2f5f7"/>
        <path id="Trazado_11837" data-name="Trazado 11837" d="M246.783,355.468a107.089,107.089,0,0,1-15.038,44.55c-44.086,71.525-154.255,56.459-170.5-27.851-10.48-51.494,32.1-104.039,84.556-104.408,44.64-.057,89.754-12.842,126.859-37.843,60.033-40.342,97.63-111.148,96.778-183.479-.535-18.474-27.539-18.143-27.95,0-.213,96.191-76.718,181.339-172.516,190.957L144.8,238.706c-28.85.715-56.98,13.225-77.371,33.441C8.677,329.25,28.405,430.587,104.191,461.5c72.993,31.292,158.733-25.655,151.746-105.932-.4-5.382-8.61-5.576-9.154-.1" transform="translate(123.796 122.098)" fill="#f2f5f7"/>
      </g>
    </g>
  </g>
</svg>
