<?xml version="1.0" encoding="UTF-8" standalone="no"?>
<svg
   xmlns:dc="http://purl.org/dc/elements/1.1/"
   xmlns:cc="http://creativecommons.org/ns#"
   xmlns:rdf="http://www.w3.org/1999/02/22-rdf-syntax-ns#"
   xmlns:svg="http://www.w3.org/2000/svg"
   xmlns="http://www.w3.org/2000/svg"
   viewBox="0 0 1365.3333 1415.6533"
   height="1415.6533"
   width="1365.3333"
   xml:space="preserve"
   id="svg2"
   version="1.1"><metadata
     id="metadata8"><rdf:RDF><cc:Work
         rdf:about=""><dc:format>image/svg+xml</dc:format><dc:type
           rdf:resource="http://purl.org/dc/dcmitype/StillImage" /></cc:Work></rdf:RDF></metadata><defs
     id="defs6"><clipPath
       id="clipPath18"
       clipPathUnits="userSpaceOnUse"><path
         id="path16"
         d="M 0,1061.735 H 1024 V 0 H 0 Z" /></clipPath><clipPath
       id="clipPath82"
       clipPathUnits="userSpaceOnUse"><path
         id="path80"
         d="M 0,1061.735 H 1024 V 0 H 0 Z" /></clipPath></defs><g
     transform="matrix(1.3333333,0,0,-1.3333333,0,1415.6533)"
     id="g10"><g
       id="g12"><g
         clip-path="url(#clipPath18)"
         id="g14"><g
           transform="translate(506.2529,977.3003)"
           id="g20"><path
             id="path22"
             style="fill:#77c8d1;fill-opacity:1;fill-rule:nonzero;stroke:none"
             d="M 0,0 C -78.885,0 -133.668,-66.304 -100.295,-144.921 -68.477,-219.883 0,-308.297 0,-308.297 c 0,0 53.492,71.775 94.842,154.149 C 136.058,-72.05 78.879,0 0,0 m -0.834,-156.352 c -30.642,0 -55.484,24.568 -55.484,54.883 0,30.317 24.842,54.882 55.484,54.882 30.646,0 55.486,-24.567 55.486,-54.882 0,-30.313 -24.84,-54.883 -55.486,-54.883" /></g><g
           transform="translate(158.2207,724.064)"
           id="g24"><path
             id="path26"
             style="fill:#932584;fill-opacity:1;fill-rule:nonzero;stroke:none"
             d="m 0,0 c -24.376,-74.221 22.449,-146.245 108.345,-139.149 81.902,6.769 188.069,43.877 188.069,43.877 0,0 -52.481,72.505 -118.895,136.856 C 111.321,105.719 24.373,74.207 0,0 m 150.079,-49.11 c -9.472,-28.827 -40.773,-44.598 -69.918,-35.231 -29.144,9.366 -45.093,40.325 -35.625,69.152 9.469,28.841 40.772,44.61 69.917,35.245 29.143,-9.367 45.094,-40.325 35.626,-69.166" /></g><g
           transform="translate(294.1572,318.3809)"
           id="g28"><path
             id="path30"
             style="fill:#f6aa2b;fill-opacity:1;fill-rule:nonzero;stroke:none"
             d="m 0,0 c 63.82,-45.859 147.539,-24.066 167.256,58.926 18.801,79.15 15.94,190.492 15.94,190.492 0,0 -85.932,-26.964 -168.325,-69.555 C -67.255,137.393 -63.814,45.869 0,0 M 93.579,126.014 C 118.375,108.201 123.871,73.879 105.854,49.348 87.846,24.83 53.146,19.396 28.352,37.209 3.562,55.031 -1.936,89.355 16.075,113.873 c 18.015,24.529 52.719,29.965 77.504,12.141" /></g><g
           transform="translate(726.1943,320.9141)"
           id="g32"><path
             id="path34"
             style="fill:#253265;fill-opacity:1;fill-rule:nonzero;stroke:none"
             d="m 0,0 c 63.819,45.855 68.737,131.355 -4.97,175.547 -70.276,42.155 -178.221,73.869 -178.221,73.869 0,0 -0.623,-89.182 14.87,-179.865 C -152.878,-20.814 -63.818,-45.871 0,0 m -92.232,126.969 c 24.797,17.826 59.499,12.392 77.503,-12.137 C 3.289,90.301 -2.216,55.977 -26.998,38.168 -51.794,20.344 -86.496,25.789 -104.502,50.305 c -18.02,24.531 -12.529,58.853 12.27,76.664" /></g><g
           transform="translate(857.2871,728.1348)"
           id="g36"><path
             id="path38"
             style="fill:#d34659;fill-opacity:1;fill-rule:nonzero;stroke:none"
             d="m 0,0 c -24.381,74.219 -105.057,105.266 -170.328,49.577 -62.251,-53.093 -126.091,-144.833 -126.091,-144.833 0,0 85.543,-28.15 177.513,-41.597 C -27.234,-150.252 24.376,-74.205 0,0 m -150.589,-47.534 c -9.48,28.827 6.477,59.799 35.618,69.166 29.145,9.367 60.45,-6.416 69.92,-35.244 9.469,-28.827 -6.484,-59.789 -35.626,-69.151 -29.145,-9.367 -60.444,6.402 -69.912,35.229" /></g></g></g><text
       id="text42"
       style="font-variant:normal;font-weight:bold;font-stretch:normal;font-size:184.68684387px;font-family:'Bree Rg';-inkscape-font-specification:Bree-Bold;writing-mode:lr-tb;fill:#2d2f2d;fill-opacity:1;fill-rule:nonzero;stroke:none"
       transform="matrix(0.82314634,-0.61754155,-0.56782929,-0.75688228,82.9902,244.4893)"><tspan
         id="tspan40"
         y="0"
         x="0">g</tspan></text>
<text
       id="text46"
       style="font-variant:normal;font-weight:bold;font-stretch:normal;font-size:187.02798462px;font-family:'Bree Rg';-inkscape-font-specification:Bree-Bold;writing-mode:lr-tb;fill:#2d2f2d;fill-opacity:1;fill-rule:nonzero;stroke:none"
       transform="matrix(0.90648681,-0.45919973,-0.42223414,-0.83351377,174.5312,177.832)"><tspan
         id="tspan44"
         y="0"
         x="0">e</tspan></text>
<text
       id="text50"
       style="font-variant:normal;font-weight:bold;font-stretch:normal;font-size:188.69238281px;font-family:'Bree Rg';-inkscape-font-specification:Bree-Bold;writing-mode:lr-tb;fill:#2d2f2d;fill-opacity:1;fill-rule:nonzero;stroke:none"
       transform="matrix(0.95966192,-0.30577121,-0.28115654,-0.88240867,261.7236,134.0254)"><tspan
         id="tspan48"
         y="0"
         x="0">o</tspan></text>
<text
       id="text54"
       style="font-variant:normal;font-weight:bold;font-stretch:normal;font-size:189.90983582px;font-family:'Bree Rg';-inkscape-font-specification:Bree-Bold;writing-mode:lr-tb;fill:#2d2f2d;fill-opacity:1;fill-rule:nonzero;stroke:none"
       transform="matrix(0.99593733,-0.09793279,-0.09004905,-0.91576402,369.3467,98.4785)"><tspan
         id="tspan52"
         y="0"
         x="0">m</tspan></text>
<text
       id="text58"
       style="font-variant:normal;font-weight:bold;font-stretch:normal;font-size:189.87934875px;font-family:'Bree Rg';-inkscape-font-specification:Bree-Bold;writing-mode:lr-tb;fill:#2d2f2d;fill-opacity:1;fill-rule:nonzero;stroke:none"
       transform="matrix(0.99505398,0.10803281,0.09933571,-0.91495153,534.5957,86.1846)"><tspan
         id="tspan56"
         y="0"
         x="0">a</tspan></text>
<text
       id="text62"
       style="font-variant:normal;font-weight:bold;font-stretch:normal;font-size:189.13867188px;font-family:'Bree Rg';-inkscape-font-specification:Bree-Bold;writing-mode:lr-tb;fill:#2d2f2d;fill-opacity:1;fill-rule:nonzero;stroke:none"
       transform="matrix(0.97319762,0.2501038,0.22997043,-0.89485457,645.3076,99.9707)"><tspan
         id="tspan60"
         y="0"
         x="0">t</tspan></text>
<text
       id="text66"
       style="font-variant:normal;font-weight:bold;font-stretch:normal;font-size:188.28105164px;font-family:'Bree Rg';-inkscape-font-specification:Bree-Bold;writing-mode:lr-tb;fill:#2d2f2d;fill-opacity:1;fill-rule:nonzero;stroke:none"
       transform="matrix(0.94692591,0.3495944,0.3214519,-0.87069731,718.8896,119.6895)"><tspan
         id="tspan64"
         y="0"
         x="0">i</tspan></text>
<text
       id="text70"
       style="font-variant:normal;font-weight:bold;font-stretch:normal;font-size:186.96582031px;font-family:'Bree Rg';-inkscape-font-specification:Bree-Bold;writing-mode:lr-tb;fill:#2d2f2d;fill-opacity:1;fill-rule:nonzero;stroke:none"
       transform="matrix(0.90441345,0.46401049,0.42665714,-0.83160763,773.4326,139.0713)"><tspan
         id="tspan68"
         y="0"
         x="0">c</tspan></text>
<text
       id="text74"
       style="font-variant:normal;font-weight:bold;font-stretch:normal;font-size:184.75067139px;font-family:'Bree Rg';-inkscape-font-specification:Bree-Bold;writing-mode:lr-tb;fill:#2d2f2d;fill-opacity:1;fill-rule:nonzero;stroke:none"
       transform="matrix(0.82557537,0.61369467,0.56429187,-0.75911607,858.3555,182.7627)"><tspan
         id="tspan72"
         y="0"
         x="0">o</tspan></text>
<g
       id="g76"><g
         clip-path="url(#clipPath82)"
         id="g78"><g
           transform="translate(174.6621,263.7539)"
           id="g84"><path
             id="path86"
             style="fill:#2d2f2d;fill-opacity:1;fill-rule:nonzero;stroke:none"
             d="m 0,0 c -1.51,1.787 -3.124,3.436 -5.709,5.375 -10.489,7.869 -21.479,0.822 -28.925,-9.104 -6.607,-8.806 -12.779,-19.25 -2.898,-26.664 5.017,-3.763 11.942,-3.716 16.662,2.575 z m -66.137,-70.102 c 7.906,-5.931 14.423,0.539 24.072,13.399 l 5.348,7.129 c -12.943,2.066 -25.4,-0.604 -31.169,-8.291 -3.775,-5.033 -2.659,-8.93 1.749,-12.237 m -27.279,25.711 c 7.656,10.203 19.144,13.164 34.211,12.346 -11.056,10.916 -13.821,30.031 -1.026,47.086 18.038,24.043 43.895,24.305 67.306,6.74 9.121,-6.843 20.376,-18.129 26.97,-28.974 L -6.751,-61.568 c -2.727,-3.635 -9.485,-12.328 -12.727,-16.014 -17.717,-20.133 -38.72,-24.691 -61.675,-7.469 -18.243,13.688 -21.597,28.219 -12.263,40.66" /></g><g
           transform="translate(253.1914,218.2988)"
           id="g88"><path
             id="path90"
             style="fill:#2d2f2d;fill-opacity:1;fill-rule:nonzero;stroke:none"
             d="m 0,0 c -8.478,4.295 -17.941,-0.51 -23.898,-11.008 9.391,-4.17 23.403,-6.369 27.272,1.268 C 5.349,-5.842 4.068,-2.061 0,0 m 28.115,-21.881 c -11.449,-22.601 -41.544,-13.039 -58.633,-5.558 -2.875,-7.358 -0.032,-16.045 10.31,-21.284 8.138,-4.123 17.256,-4.629 24.339,-4.101 L 2.905,-73.75 c -1.243,-0.352 -18.064,-2.016 -37.052,7.602 -29.839,15.115 -33.167,37.564 -21.166,61.257 11.451,22.604 37.086,37.041 66.078,22.358 17.801,-9.018 25.642,-22.979 17.35,-39.348" /></g><g
           transform="translate(334.9014,157.1113)"
           id="g92"><path
             id="path94"
             style="fill:#2d2f2d;fill-opacity:1;fill-rule:nonzero;stroke:none"
             d="m 0,0 c 5.412,16.984 5.093,26.623 -4.143,29.564 -8.51,2.713 -15.125,-4.9 -19.528,-18.72 -4.562,-14.321 -7.125,-27.992 3.559,-31.397 C -11.239,-23.379 -5.199,-16.316 0,0 M 3.491,49.141 C 17.978,44.525 44.59,31.645 32.122,-7.482 22.147,-38.785 -2.863,-48.424 -27.853,-40.463 c -25.893,8.25 -37.265,27.647 -27.609,57.951 11.142,34.965 39.216,37.942 58.953,31.653" /></g><g
           transform="translate(379.3711,97.4922)"
           id="g96"><path
             id="path98"
             style="fill:#2d2f2d;fill-opacity:1;fill-rule:nonzero;stroke:none"
             d="m 0,0 6.995,71.133 -0.507,18.137 26.1,-2.567 1.157,-9.596 c 6.581,6.729 14.798,10.661 27.28,9.434 10.97,-1.08 19.517,-5.432 23.837,-13.934 6.375,6.573 14.936,10.12 27.04,8.93 18.535,-1.822 28.943,-12.504 26.856,-33.723 l -5.987,-60.871 -31.585,3.106 5.491,55.828 c 0.769,7.826 0.199,13.678 -7.366,14.422 C 91.935,61.023 88.378,55.93 87.643,48.451 l -5.56,-56.523 -31.585,3.105 5.491,55.828 c 0.752,7.653 0.577,13.641 -7.177,14.405 C 41.247,66.008 37.88,60.896 37.127,53.244 L 31.585,-3.105 Z" /></g><g
           transform="translate(588.2285,162.6699)"
           id="g100"><path
             id="path102"
             style="fill:#2d2f2d;fill-opacity:1;fill-rule:nonzero;stroke:none"
             d="m 0,0 c -2.153,0.471 -5.422,0.643 -8.823,0.273 -12.281,-1.332 -14.966,-15.336 -13.344,-30.277 1.452,-13.377 5.305,-24.209 16.263,-23.019 7.368,0.798 10.997,6.115 10.45,11.154 z m 36.908,-47.674 4.115,-18.537 -26.829,-2.912 -2.209,8.021 -1.152,0.051 c -4.781,-8.781 -13.359,-12.525 -23.185,-13.592 -28.906,-3.136 -38.594,17.434 -40.952,39.151 -3.319,30.578 11.271,52.904 45.657,56.637 6.801,0.738 21.519,0.751 37.408,-2.973 z" /></g><g
           transform="translate(655.3838,227.959)"
           id="g104"><path
             id="path106"
             style="fill:#2d2f2d;fill-opacity:1;fill-rule:nonzero;stroke:none"
             d="m 0,0 7.961,-30.973 23.009,5.912 5.698,-22.171 -23.008,-5.913 8.787,-34.189 c 2.393,-9.309 7.788,-10.447 14.046,-8.84 3.497,0.899 6.506,2.936 9.243,5.262 l 11.195,-16.068 c -4.836,-4.852 -14.22,-10.331 -24.528,-12.979 C 1.111,-128 -4.483,-111.576 -8.834,-94.65 l -22.273,86.656 z" /></g><g
           transform="translate(728.3389,123.1777)"
           id="g108"><path
             id="path110"
             style="fill:#2d2f2d;fill-opacity:1;fill-rule:nonzero;stroke:none"
             d="M 0,0 -30.984,83.938 -1.033,94.996 29.951,11.059 Z m -29.867,127.01 c 9.449,3.488 18.106,-0.207 20.89,-7.748 2.905,-7.869 -1.395,-15.979 -10.844,-19.467 -9.806,-3.621 -17.986,-0.121 -20.89,7.748 -2.784,7.543 1.038,15.846 10.844,19.467" /></g><g
           transform="translate(828.209,198.0137)"
           id="g112"><path
             id="path114"
             style="fill:#2d2f2d;fill-opacity:1;fill-rule:nonzero;stroke:none"
             d="m 0,0 18.991,-12.451 c -4.906,-9.588 -13.724,-18.631 -27.084,-25.485 -25.364,-13.015 -48.518,-7.021 -62.399,20.034 -15.795,30.787 -0.622,54.09 19.67,64.5 12.175,6.248 26.433,8.849 41.439,0.834 L -19.69,25.055 c -6.691,3.049 -13.162,4.836 -19.418,1.627 -9.301,-4.774 -10.634,-15.08 -3.535,-28.92 7.101,-13.838 16.749,-18.905 28.079,-13.092 C -8.646,-12.293 -4.619,-8.066 0,0" /></g><g
           transform="translate(882.3145,255.6621)"
           id="g116"><path
             id="path118"
             style="fill:#2d2f2d;fill-opacity:1;fill-rule:nonzero;stroke:none"
             d="m 0,0 c -10.633,14.305 -18.647,19.67 -26.426,13.887 -7.169,-5.328 -4.846,-15.143 3.806,-26.783 8.966,-12.061 18.574,-22.12 27.573,-15.43 C 12.427,-22.77 10.217,-13.744 0,0 m -37.868,31.51 c 12.202,9.07 38.193,23.168 62.691,-9.791 19.599,-26.365 12.829,-52.301 -8.219,-67.949 -21.812,-16.213 -44.2,-14.131 -63.173,11.392 -21.892,29.451 -7.924,53.988 8.701,66.348" /></g></g></g></g></svg>