<svg xmlns="http://www.w3.org/2000/svg" width="82" height="69" viewBox="0 0 82 69">
  <g id="salvora_silueta" transform="translate(-140 -4953)">
    <path id="Trazado_11869" data-name="Trazado 11869" d="M670.269,129.18l5.319,9.134,7.284,2.428,2.89,4.162,6.475-1.5-.579-7.053,1.388-1.5,5.781,1.387,4.162-1.156v-2.891l3.238-4.624.925-4.162h6.59l2.2,1.272,2.081-4.625,7.284-3.122.925-2.312-2.2-4.567.347-6.417L720.1,97.963l-3.122-6.128s-2.544-2.428-2.544-2.891-.115-4.856-.115-4.856l2.543-3.469L716.98,79h-2.2l-2.2,1.156-1.156-.116-2.659,9.481-1.5,2.775h-2.659l-1.041.578,1.156,2.775.232,1.965-2.544-.347-.463,2.544-1.5,1.85.462,2.891-2.659,1.85-3.006-.81-3.006.925-4.162-1.85.115-2.891-1.5-1.387-.81.347-.347,3.584-1.388.578-1.965-1.156-3.7,1.5-1.272,5.874-.231,9.966-5.435,4.972Z" transform="translate(-530.269 4875.367)" fill="#f4a453"/>
    <rect id="Rectángulo_3286" data-name="Rectángulo 3286" width="82" height="69" transform="translate(140 4953)" fill="none"/>
  </g>
</svg>
