<svg id="Grupo_12192" data-name="Grupo 12192" xmlns="http://www.w3.org/2000/svg" xmlns:xlink="http://www.w3.org/1999/xlink" width="351.968" height="87.042" viewBox="0 0 351.968 87.042">
  <defs>
    <clipPath id="clip-path">
      <rect id="Rectángulo_3217" data-name="Rectángulo 3217" width="351.968" height="87.042" fill="none"/>
    </clipPath>
  </defs>
  <g id="Grupo_12188" data-name="Grupo 12188" clip-path="url(#clip-path)">
    <path id="Trazado_11746" data-name="Trazado 11746" d="M74.4,32.127h-.646a1.514,1.514,0,0,0-1.515,1.513V46.365a1.838,1.838,0,0,0,3.676,0V33.64A1.514,1.514,0,0,0,74.4,32.127" transform="translate(54.151 24.081)" fill="#fff"/>
    <path id="Trazado_11747" data-name="Trazado 11747" d="M98.1,38.848H91.149a1.466,1.466,0,1,0,0,2.929h5.039v1.966a1.508,1.508,0,0,1-1.26,1.492,44.394,44.394,0,0,1-6.778.544c-4.96,0-8.267-.481-8.267-5.418,0-5.306,3.949-5.443,8.267-5.443a47.026,47.026,0,0,1,8.482.733,1.515,1.515,0,0,0,.577-2.974,45.592,45.592,0,0,0-9.059-.814c-7.348,0-11.942,1.4-11.942,8.5,0,7.3,5.1,8.5,11.942,8.5a47.826,47.826,0,0,0,10.265-1.267,1.516,1.516,0,0,0,1.149-1.471V40.458c0-.024-.005-.047-.007-.072s.007-.049.007-.073A1.465,1.465,0,0,0,98.1,38.848" transform="translate(57.122 23.884)" fill="#fff"/>
    <path id="Trazado_11748" data-name="Trazado 11748" d="M60.121,38.126a2.95,2.95,0,0,0,2.95-2.951V32.039c2.14.073,4.243.147,6.272.147,13.1,0,23.757-2.176,23.757-10.587,0-7.967-9.481-9.887-21.581-9.887-1.394,0-2.822.024-4.274.068A10.39,10.39,0,0,0,57.17,22.167V35.174a2.951,2.951,0,0,0,2.951,2.951m8.02-21.42c1.564-.052,3.095-.087,4.558-.087,8.153,0,14.5.959,14.5,5.018,0,4.5-7.71,5.571-17.079,5.571-.619,0-1.244,0-1.874-.009a5.248,5.248,0,0,1-.1-10.492" transform="translate(42.852 8.779)" fill="#fff"/>
    <path id="Trazado_11749" data-name="Trazado 11749" d="M90.558,30.9v2.866a2.885,2.885,0,0,0,5.77,0v-2.9l9.558-12.424a2.5,2.5,0,0,0-3.961-3.058L93.742,25.943h-.418L84.958,15.367a2.509,2.509,0,0,0-3.963,3.077Z" transform="translate(60.32 10.808)" fill="#fff"/>
    <path id="Trazado_11750" data-name="Trazado 11750" d="M78.235,32.127h-.569a1.516,1.516,0,0,0-1.34.808L70.313,44.341a1.515,1.515,0,0,1-1.34.807H68.09a1.515,1.515,0,0,1-1.34-.807L60.736,32.935a1.516,1.516,0,0,0-1.34-.808h-.569a1.514,1.514,0,0,0-1.338,2.222l5.583,10.564a6.176,6.176,0,0,0,10.919,0l5.583-10.564a1.514,1.514,0,0,0-1.338-2.222" transform="translate(42.958 24.081)" fill="#fff"/>
    <path id="Trazado_11751" data-name="Trazado 11751" d="M206.931,22.748H191.154c-.934,0-3.776,0-3.776-2,0-3.588,6.75-4.048,12.63-4.048a74.529,74.529,0,0,1,10.09.56,2.231,2.231,0,0,0,.322.023,2.474,2.474,0,0,0,.383-4.893,70.731,70.731,0,0,0-10.754-.924c-15.275,0-18.482,5.226-18.482,9.609,0,4.248,3.146,6.4,9.346,6.4h15.979c1.568,0,3.17.227,3.17,1.912,0,2.8-3.872,4.048-12.548,4.048a63.513,63.513,0,0,1-12.534-1.051,2.35,2.35,0,0,0-.479-.051,2.4,2.4,0,0,0-2.33,2.467v.1a2.426,2.426,0,0,0,1.8,2.4,66.507,66.507,0,0,0,13.5,1.457c8.394,0,18.4-1.667,18.4-9.607,0-4.25-3.009-6.4-8.944-6.4" transform="translate(136.093 8.59)" fill="#fff"/>
    <path id="Trazado_11752" data-name="Trazado 11752" d="M103.638,31.8c-8.613,0-12.333,2.595-12.333,8.611s3.72,8.613,12.333,8.613c8.634,0,12.333-2.6,12.333-8.613s-3.7-8.611-12.333-8.611m0,14.17c-6.223,0-8.659-1.562-8.659-5.558s2.435-5.557,8.659-5.557,8.659,1.562,8.659,5.557-2.435,5.558-8.659,5.558" transform="translate(68.438 23.835)" fill="#fff"/>
    <path id="Trazado_11753" data-name="Trazado 11753" d="M192.51,12.73a61.33,61.33,0,0,0-13.27-1.27c-10.364,0-19.145,2.1-19.145,13.65s8.781,13.648,19.145,13.648a62.647,62.647,0,0,0,13.255-1.286,2.439,2.439,0,0,0-.983-4.776,65.976,65.976,0,0,1-12.161,1.12c-7.1,0-12.135-.63-13.151-6.37h18.1a2.341,2.341,0,1,0,0-4.682H166.205c1.113-6.2,6.846-6.4,13.071-6.4a65.817,65.817,0,0,1,12.233,1.163,2.435,2.435,0,0,0,2.892-2.4v-.026a2.433,2.433,0,0,0-1.891-2.378" transform="translate(119.999 8.59)" fill="#fff"/>
    <path id="Trazado_11754" data-name="Trazado 11754" d="M167.289,14.279a2.889,2.889,0,0,0-2.885,2.885V31.129a.456.456,0,0,1-.782.273l-7.84-9.834-4.225-4.932a6.3,6.3,0,0,0-11.209,3.942v3.6a2.885,2.885,0,1,0,5.77,0V19.664a.45.45,0,0,1,.787-.264l6.085,7.311,5.976,7.446a6.3,6.3,0,0,0,11.208-3.942V17.164a2.889,2.889,0,0,0-2.885-2.885" transform="translate(105.198 10.703)" fill="#fff"/>
    <path id="Trazado_11755" data-name="Trazado 11755" d="M129.881,12.73a61.317,61.317,0,0,0-13.27-1.27c-10.364,0-19.145,2.1-19.145,13.65s8.781,13.648,19.145,13.648a62.647,62.647,0,0,0,13.255-1.286,2.439,2.439,0,0,0-.983-4.776,65.977,65.977,0,0,1-12.161,1.12c-7.967,0-13.353-.775-13.353-8.706,0-8.522,6.344-8.743,13.279-8.743a65.855,65.855,0,0,1,12.235,1.163,2.435,2.435,0,0,0,2.89-2.4v-.026a2.433,2.433,0,0,0-1.891-2.378" transform="translate(73.055 8.59)" fill="#fff"/>
    <path id="Trazado_11756" data-name="Trazado 11756" d="M136.061,13.844c-11.631,0-16.818,3.664-16.818,11.878S124.43,37.6,136.061,37.6s16.818-3.665,16.818-11.881-5.187-11.878-16.818-11.878m0,18.811c-8.055,0-11.048-1.879-11.048-6.933s2.993-6.932,11.048-6.932,11.048,1.879,11.048,6.932-3,6.933-11.048,6.933" transform="translate(89.379 10.377)" fill="#fff"/>
    <path id="Trazado_11757" data-name="Trazado 11757" d="M36.723,24.838a8.679,8.679,0,0,0,5.021-15.76,1.882,1.882,0,0,0-2.18,3.069,4.915,4.915,0,0,1-2.841,8.926A36.765,36.765,0,0,0,0,57.8a1.882,1.882,0,0,0,3.763,0,33,33,0,0,1,32.96-32.96" transform="translate(0 6.543)" fill="#fff"/>
    <path id="Trazado_11758" data-name="Trazado 11758" d="M59.551,11.9a1.883,1.883,0,0,0-1.883,1.883,33,33,0,0,1-32.96,32.958A8.68,8.68,0,0,0,19.689,62.5a1.882,1.882,0,1,0,2.178-3.07,4.916,4.916,0,0,1,2.841-8.926A36.766,36.766,0,0,0,61.433,13.783,1.883,1.883,0,0,0,59.551,11.9" transform="translate(12.015 8.919)" fill="#fff"/>
    <path id="Trazado_11759" data-name="Trazado 11759" d="M30.716,83.277a18.937,18.937,0,1,1,0-37.874,22.7,22.7,0,1,0,0-45.4,1.882,1.882,0,1,0,0,3.763,18.938,18.938,0,0,1,0,37.876,22.7,22.7,0,1,0,0,45.4,1.883,1.883,0,1,0,0-3.765" transform="translate(6.007 0)" fill="#fff"/>
    <path id="Trazado_11760" data-name="Trazado 11760" d="M31.011,35.509l3.256-.177A15.725,15.725,0,0,0,48.654,24.3c3.324-10.4-5.5-21.3-16.371-20.046C24.758,4.9,18.514,12.058,19.3,19.591a.62.62,0,0,0,1.233,0C21.224,10.982,30.4,4.9,38.429,8.41c7.765,3.242,9.792,13.947,3.6,19.689a12.175,12.175,0,0,1-7.164,3.286c-.436.016-3.744.189-4.26.215A29.775,29.775,0,0,0,4.009,61.231a1.883,1.883,0,0,0,3.765.026A27.194,27.194,0,0,1,10.895,49.1,26.364,26.364,0,0,1,31.011,35.509" transform="translate(3.002 3.111)" fill="#fff"/>
    <path id="Trazado_11761" data-name="Trazado 11761" d="M37.832,44.17H33.745v-.677a1.194,1.194,0,0,1,.318-.784,4.735,4.735,0,0,1,.817-.73q.5-.357,1.06-.749A9.464,9.464,0,0,0,37,40.375a4.227,4.227,0,0,0,.815-1.036,2.568,2.568,0,0,0,.318-1.274,2.479,2.479,0,0,0-.364-1.34,2.59,2.59,0,0,0-.983-.915,2.886,2.886,0,0,0-1.386-.332,2.938,2.938,0,0,0-1.295.287,2.363,2.363,0,0,0-.941.794,2.049,2.049,0,0,0-.352,1.188.74.74,0,0,0,.133.511.489.489,0,0,0,.371.14.636.636,0,0,0,.432-.133.4.4,0,0,0,.152-.306,1.333,1.333,0,0,1,.43-1.086,1.6,1.6,0,0,1,1.057-.359,1.653,1.653,0,0,1,.927.238,1.5,1.5,0,0,1,.532.6,1.743,1.743,0,0,1-.147,1.758,4.381,4.381,0,0,1-.822.884c-.336.278-.693.548-1.067.81s-.733.53-1.069.808a4.442,4.442,0,0,0-.822.875,1.727,1.727,0,0,0-.318,1V44.78a.325.325,0,0,0,.171.29.629.629,0,0,0,.332.107h4.724a.327.327,0,0,0,.271-.152.611.611,0,0,0,0-.71.337.337,0,0,0-.271-.145" transform="translate(24.438 26.592)" fill="#fff"/>
    <path id="Trazado_11762" data-name="Trazado 11762" d="M41.367,41.888h-.689V39.659a.313.313,0,0,0-.173-.292.845.845,0,0,0-.77,0,.309.309,0,0,0-.171.292v2.229H37.254l2.92-5.786a.429.429,0,0,0,.052-.185.324.324,0,0,0-.1-.233.743.743,0,0,0-.22-.152.579.579,0,0,0-.238-.052.592.592,0,0,0-.273.073.562.562,0,0,0-.231.245L35.9,42.259a.3.3,0,0,0-.052.121.672.672,0,0,0-.012.133.469.469,0,0,0,.1.318.39.39,0,0,0,.306.119h3.317v1.832a.322.322,0,0,0,.171.3.793.793,0,0,0,.77,0,.326.326,0,0,0,.173-.3V42.95h.689a.335.335,0,0,0,.285-.166.633.633,0,0,0,.112-.364.7.7,0,0,0-.1-.366.323.323,0,0,0-.3-.166" transform="translate(26.86 26.593)" fill="#fff"/>
    <path id="Trazado_11763" data-name="Trazado 11763" d="M40.859,55.394a14.411,14.411,0,0,1-2.026,6C32.895,71.03,18.055,69,15.866,57.644a12.044,12.044,0,0,1,11.39-14.065,30.863,30.863,0,0,0,17.088-5.1A29.833,29.833,0,0,0,57.38,13.769a1.883,1.883,0,0,0-3.765,0,26.314,26.314,0,0,1-23.238,25.72l-3.256.178a15.614,15.614,0,0,0-5.469,30.008c9.832,4.215,21.381-3.455,20.44-14.268a.621.621,0,0,0-1.233-.014" transform="translate(9.058 8.933)" fill="#fff"/>
  </g>
</svg>
