<svg id="Layer_1" data-name="Layer 1" xmlns="http://www.w3.org/2000/svg" viewBox="0 0 957.55 406.19"><defs><style>.cls-1{fill:#003fa2;}</style></defs><path class="cls-1" d="M710.39,248a75,75,0,0,1-7.27,2.72,61,61,0,0,1-18.58,2.78,52.37,52.37,0,0,1-16.24-2.37,38.38,38.38,0,0,1-12.44-6.54,29,29,0,0,1-8-9.93A28.27,28.27,0,0,1,645.07,222a29.87,29.87,0,0,1,2.64-12.57,28.52,28.52,0,0,1,7.7-10,36.52,36.52,0,0,1,12.31-6.62,52.57,52.57,0,0,1,16.38-2.37,66.51,66.51,0,0,1,15.71,1.87,80.8,80.8,0,0,1,7.78,2.35,11.51,11.51,0,0,0,7.94-21.6c-2.82-1-5.71-2-8.2-2.72a88,88,0,0,0-12.94-2.28,111.14,111.14,0,0,0-13.33-.81A80.83,80.83,0,0,0,654,171.47a58.9,58.9,0,0,0-20.05,11.59,48.68,48.68,0,0,0-12.44,17.46,55.08,55.08,0,0,0-4.25,21.7,52.45,52.45,0,0,0,4.43,21.66,49.41,49.41,0,0,0,12.75,17.23,59.91,59.91,0,0,0,20.32,11.42,83.43,83.43,0,0,0,27.12,4.11,97.41,97.41,0,0,0,14.37-1,85,85,0,0,0,13.24-2.82c3.63-1.14,7.13-2.5,10.24-3.82a11.49,11.49,0,1,0-9.32-21Z"/><path class="cls-1" d="M431.71,134.86H401.64L345,255.51a13.51,13.51,0,1,0,24.48,11.42l47.48-102.62,49,102.82a13.39,13.39,0,1,0,24.14-11.59Z"/><path class="cls-1" d="M858.41,202.71a53.66,53.66,0,0,0-13-18.53,61.16,61.16,0,0,0-20.58-12.4,84.52,84.52,0,0,0-54.42,0,61.52,61.52,0,0,0-20.19,12,52.16,52.16,0,0,0-12.62,17.32,49.79,49.79,0,0,0-4.39,20.54,51.54,51.54,0,0,0,4.57,21.58,48.42,48.42,0,0,0,13.6,17.45,67.47,67.47,0,0,0,22.47,11.73q13.43,4.29,31.24,4.29,7,0,13.29-.62c4.21-.42,8.23-1.07,12.09-1.84a86.53,86.53,0,0,0,10-3,11.34,11.34,0,0,0,6.71-15.3,11.18,11.18,0,0,0-13.1-6.38q-3.66,1-7.46,1.85a87.28,87.28,0,0,1-35.62.53,54.22,54.22,0,0,1-13.25-4.43,34.41,34.41,0,0,1-9.53-6.8,24.08,24.08,0,0,1-5.51-8.68,28.59,28.59,0,0,1-1.7-9.94,30.29,30.29,0,0,1,1.7-10.74,25.48,25.48,0,0,1,4.52-8,30.64,30.64,0,0,1,7.75-6.63,41.43,41.43,0,0,1,10.83-4.56,51.27,51.27,0,0,1,13.69-1.7,49,49,0,0,1,13,1.61,38,38,0,0,1,10.38,4.43,29.47,29.47,0,0,1,7.48,6.62,26.58,26.58,0,0,1,4.43,8.19H792.69a10.34,10.34,0,0,0,0,20.68h70c.11-1,.19-2,.22-3.18s0-2.25,0-3.27A57.87,57.87,0,0,0,858.41,202.71Z"/><path class="cls-1" d="M581.92,169.14a13.25,13.25,0,0,0-13.25,13.25v92.37h26.5V182.39A13.25,13.25,0,0,0,581.92,169.14Z"/><path class="cls-1" d="M526.28,126.27A13.25,13.25,0,0,0,513,139.52V274.76h26.49V139.52A13.25,13.25,0,0,0,526.28,126.27Z"/><path class="cls-1" d="M185.4,213l-79.29-45.78a7.66,7.66,0,0,0-11.49,6.64v91.55a7.66,7.66,0,0,0,11.49,6.64l79.29-45.78A7.66,7.66,0,0,0,185.4,213Z"/><path class="cls-1" d="M191.26,105.62c-27.34,0-50.65,19.7-62.82,49.43l22.67,13.09c8-21.79,23.2-36.87,40.15-36.87,23.68,0,43.87,29.37,46,65.44l-30.14,17.4a6.38,6.38,0,0,0,0,11L231.06,239c-8.13,21.29-23.08,36-39.8,36-9.32,0-18.1-4.56-25.45-12.27l-22.87,13.2c12.68,15.44,29.55,24.73,48.32,24.73,40.32,0,71.9-42.82,71.9-97.48S231.58,105.62,191.26,105.62Z"/></svg>
